<svg width="433" height="8" viewBox="0 0 433 8" fill="none" xmlns="http://www.w3.org/2000/svg">
<path d="M217.048 7.03223L175.815 7.03223C171.932 7.03223 168.783 3.88374 168.783 -0.000106335L217.048 -0.000106335V7.03223Z" fill="#F20000"/>
<path opacity="0.8" d="M154.094 2.83526C154.094 5.15318 152.215 7.03223 149.897 7.03223L124.715 7.03223C122.397 7.03223 120.518 5.15318 120.518 2.83526V-0.000106335L154.094 -0.000106335V2.83526Z" fill="#F20000"/>
<path opacity="0.65" d="M107.926 2.83526C107.926 5.15318 106.047 7.03223 103.729 7.03223L84.843 7.03223C82.5251 7.03223 80.6461 5.15318 80.6461 2.83526V-0.000106335L107.926 -0.000106335V2.83526Z" fill="#F20000"/>
<path opacity="0.45" d="M68.0559 2.83526C68.0559 5.15318 66.1769 7.03223 63.8589 7.03223L51.268 7.03223C48.9501 7.03223 47.0711 5.15318 47.0711 2.83526V-0.000106335L68.0559 -0.000106335V2.83526Z" fill="#F20000"/>
<path opacity="0.28" d="M34.4795 2.83526C34.4795 5.15318 32.6004 7.03223 30.2825 7.03223H23.9871C21.6691 7.03223 19.7901 5.15318 19.7901 2.83526V-0.000106335L34.4795 -0.000106335V2.83526Z" fill="#F20000"/>
<path opacity="0.12" d="M9.29797 2.83526C9.29797 5.15318 7.41892 7.03223 5.101 7.03223C2.78308 7.03223 0.904031 5.15318 0.904031 2.83526V-0.000106335L9.29797 -0.000106335V2.83526Z" fill="#F20000"/>
<path d="M216.856 0H265.121C265.121 3.88384 261.973 7.03233 258.089 7.03233H216.856V0Z" fill="#F20000"/>
<path opacity="0.8" d="M279.811 0H313.386V2.83537C313.386 5.15329 311.507 7.03233 309.189 7.03233H284.008C281.69 7.03233 279.811 5.15329 279.811 2.83537V0Z" fill="#F20000"/>
<path opacity="0.65" d="M325.977 0H353.258V2.83537C353.258 5.15329 351.379 7.03233 349.061 7.03233H330.174C327.856 7.03233 325.977 5.15329 325.977 2.83537V0Z" fill="#F20000"/>
<path opacity="0.45" d="M365.849 0H386.833V2.83537C386.833 5.15329 384.954 7.03233 382.636 7.03233H370.045C367.728 7.03233 365.849 5.15329 365.849 2.83537V0Z" fill="#F20000"/>
<path opacity="0.28" d="M399.424 0H414.114V2.83537C414.114 5.15329 412.235 7.03233 409.917 7.03233H403.621C401.303 7.03233 399.424 5.15329 399.424 2.83537V0Z" fill="#F20000"/>
<path opacity="0.12" d="M424.606 0H433V2.83537C433 5.15329 431.121 7.03233 428.803 7.03233C426.485 7.03233 424.606 5.15329 424.606 2.83537V0Z" fill="#F20000"/>
</svg>
