<svg width="229" height="8" viewBox="0 0 229 8" fill="none" xmlns="http://www.w3.org/2000/svg">
<path d="M-0.0959473 8.00035C-0.0959473 4.1165 3.05253 0.968018 6.93638 0.968018H44.0291C47.9129 0.968018 51.0614 4.1165 51.0614 8.00035H-0.0959473Z" fill="#C60A0A"/>
<path opacity="0.8" d="M66.6309 8.00035C66.6309 4.1165 69.7793 0.968018 73.6632 0.968018H95.1863C99.0701 0.968018 102.219 4.1165 102.219 8.00035H66.6309Z" fill="#C60A0A"/>
<path opacity="0.65" d="M115.564 8.00035C115.564 4.1165 118.713 0.968018 122.597 0.968018H137.447C141.331 0.968018 144.479 4.1165 144.479 8.00035H115.564Z" fill="#C60A0A"/>
<path opacity="0.45" d="M157.824 8.00035C157.824 4.1165 160.973 0.968018 164.857 0.968018H173.034C176.918 0.968018 180.067 4.1165 180.067 8.00035H157.824Z" fill="#C60A0A"/>
<path opacity="0.28" d="M193.412 8.00035C193.412 4.1165 196.561 0.968018 200.445 0.968018H201.95C205.834 0.968018 208.982 4.1165 208.982 8.00035H193.412Z" fill="#C60A0A"/>
<rect opacity="0.12" x="220.103" y="0.968018" width="8.89693" height="7.03233" fill="#C60A0A"/>
</svg>
