<svg width="1933" height="1096" viewBox="0 0 1933 1096" fill="none" xmlns="http://www.w3.org/2000/svg"><g filter="url(#a)"><path d="M427.19 40.5c-9.237 0-18.43 1.278-27.317 3.799l-61.436 17.423a100.097 100.097 0 0 1-27.317 3.799H79.234a36.257 36.257 0 0 0-36.257 36.258v843.307c0 21.492 17.422 38.914 38.914 38.914h60.31a45.384 45.384 0 0 1 32.091 13.292l46.744 46.748a34.44 34.44 0 0 0 24.338 10.08H296l-23 34.45H7V7h1919v1081.57h-265l-23-34.45h49.63c9.12 0 17.88-3.63 24.33-10.08l46.75-46.748A45.373 45.373 0 0 1 1790.8 984h60.31c21.49 0 38.91-17.422 38.91-38.914V101.779a36.257 36.257 0 0 0-36.25-36.258h-231.89c-9.24 0-18.43-1.278-27.32-3.799L1533.13 44.3a100.118 100.118 0 0 0-27.32-3.799H427.19Z" stroke="#FFD900"/></g><defs><filter id="a" x=".5" y=".5" width="1932" height="1094.57" filterUnits="userSpaceOnUse" color-interpolation-filters="sRGB"><feFlood flood-opacity="0" result="BackgroundImageFix"/><feColorMatrix in="SourceAlpha" values="0 0 0 0 0 0 0 0 0 0 0 0 0 0 0 0 0 0 127 0" result="hardAlpha"/><feOffset/><feGaussianBlur stdDeviation="3"/><feColorMatrix values="0 0 0 0 1 0 0 0 0 0.85098 0 0 0 0 0 0 0 0 0.890196 0"/><feBlend in2="BackgroundImageFix" result="effect1_dropShadow_45_456"/><feBlend in="SourceGraphic" in2="effect1_dropShadow_45_456" result="shape"/></filter></defs></svg>