<svg width="159" height="159" viewBox="0 0 159 159" fill="none" xmlns="http://www.w3.org/2000/svg"><g filter="url(#a)"><circle cx="79.5" cy="79.5" r="75.5" fill="#000"/><circle cx="79.5" cy="79.5" r="73.5" stroke="url(#b)" stroke-width="4"/></g><path d="M105.427 88.669c-1.333 0-2.667.002-4.002-.001-.414-.002-.807-.084-1.088-.428-.335-.41-.452-.873-.205-1.356a62.15 62.15 0 0 1 1.224-2.257c1.561-2.758 3.127-5.51 4.693-8.266 1.975-3.477 3.949-6.956 5.925-10.433a1573.07 1573.07 0 0 1 2.336-4.097c.082-.143.175-.28.272-.412.552-.756 1.542-.777 2.085-.015.333.467.614.974.901 1.473.994 1.725 1.981 3.455 2.968 5.185.322.566.615 1.143.7 1.806a3.884 3.884 0 0 1-.473 2.453c-.917 1.636-1.84 3.27-2.763 4.904-1.649 2.915-3.297 5.83-4.952 8.743-.342.6-.662 1.218-1.188 1.688-.72.648-1.555 1.009-2.531 1.013-1.301.005-2.601 0-3.902 0Zm19.559 0c-1.654 0-3.309.002-4.965-.001-.462 0-.882-.11-1.167-.52-.288-.415-.358-.86-.116-1.305.478-.883.972-1.755 1.475-2.625a1089.04 1089.04 0 0 1 3.223-5.525 6.93 6.93 0 0 1 .638-.936c.472-.562 1.398-.556 1.841.03.356.471.661.984.961 1.494 1.326 2.257 2.646 4.517 3.961 6.781.181.313.351.637.479.972.25.648-.214 1.46-.899 1.576a7.06 7.06 0 0 1-1.107.073c-1.442.009-2.883.004-4.323.004l-.001-.018Z" fill="#fff"/><path fill-rule="evenodd" clip-rule="evenodd" d="M51.877 61.74a6.839 6.839 0 0 0-6.844 6.822v7.563a31.88 31.88 0 0 1-2.173.078c-.748 0-1.464.03-2.173.072v-7.713a6.845 6.845 0 0 0-13.687 0v18.076a6.846 6.846 0 0 0 13.687 0v-7.563a32.103 32.103 0 0 1 2.173-.078c.747 0 1.464-.03 2.173-.072v7.714a6.845 6.845 0 0 0 13.686 0V68.562a6.84 6.84 0 0 0-6.842-6.822Zm-18.034 2.795a4.038 4.038 0 0 1 4.039 4.027v8.009c-2.003.29-3.957.843-5.816 1.644-.805.354-1.562.805-2.255 1.346v-11a4.04 4.04 0 0 1 4.032-4.026Zm4.039 22.104a4.039 4.039 0 0 1-8.078.003v-1.817c0-1.602 1.269-3.119 3.396-4.064a19.865 19.865 0 0 1 4.682-1.369v7.247Zm13.995 4.026a4.037 4.037 0 0 1-4.04-4.026v-8.01a23.02 23.02 0 0 0 5.816-1.644 10.563 10.563 0 0 0 2.256-1.347v11a4.037 4.037 0 0 1-4.032 4.026Zm.644-16.237a19.984 19.984 0 0 1-4.683 1.37v-7.236a4.039 4.039 0 0 1 8.078-.004v1.818c0 1.594-1.27 3.111-3.395 4.052Z" fill="url(#c)"/><path d="M89.707 79.707a1 1 0 0 0 0-1.414l-6.364-6.364a1 1 0 0 0-1.414 1.414L87.586 79l-5.657 5.657a1 1 0 0 0 1.414 1.414l6.364-6.364ZM73 80h16v-2H73v2Z" fill="red"/><defs><linearGradient id="b" x1="79.5" y1="4" x2="79.5" y2="155" gradientUnits="userSpaceOnUse"><stop stop-color="#3BB1E0"/><stop offset="1" stop-color="red"/></linearGradient><linearGradient id="c" x1="-3237.05" y1="-634.432" x2="-3236.9" y2="-634.586" gradientUnits="userSpaceOnUse"><stop stop-color="#00ACE7"/><stop offset="1" stop-color="#69F8BB"/></linearGradient><filter id="a" x="0" y="0" width="159" height="159" filterUnits="userSpaceOnUse" color-interpolation-filters="sRGB"><feFlood flood-opacity="0" result="BackgroundImageFix"/><feColorMatrix in="SourceAlpha" values="0 0 0 0 0 0 0 0 0 0 0 0 0 0 0 0 0 0 127 0" result="hardAlpha"/><feOffset/><feGaussianBlur stdDeviation="2"/><feComposite in2="hardAlpha" operator="out"/><feColorMatrix values="0 0 0 0 1 0 0 0 0 0.85098 0 0 0 0 0 0 0 0 1 0"/><feBlend in2="BackgroundImageFix" result="effect1_dropShadow_0_1"/><feBlend in="SourceGraphic" in2="effect1_dropShadow_0_1" result="shape"/></filter></defs></svg>