<svg width="48" height="48" viewBox="0 0 48 48" fill="none" xmlns="http://www.w3.org/2000/svg"><path d="M41.063 3h2.002c.802.29 1.1.863 1.095 1.707-.023 3.685-.01 7.37-.01 11.052 0 .765.004 1.53 0 2.294-.006.918-.563 1.467-1.488 1.477-.291.003-.584 0-.875 0-1.181 0-1.531-.27-1.814-1.441l-2.517-.262c.07.202.122.342.168.483 1.596 4.8 1.325 9.488-.837 14.062-.222.474-.675.95-.645 1.4.029.458.525.884.815 1.325.657 1 .564 1.977-.282 2.83a544.189 544.189 0 0 1-3.068 3.067c-.867.86-1.838.947-2.863.269-.44-.292-.877-.586-1.246-.833-1.093.49-2.123.97-3.17 1.412-.518.22-1.23.227-1.554.595-.327.373-.277 1.074-.402 1.629-.22.979-1.027 1.644-2.032 1.65-1.53.01-3.058.01-4.588 0-1.034-.004-1.836-.663-2.056-1.668-.104-.475-.179-.957-.3-1.425-.033-.129-.17-.293-.29-.327a19.908 19.908 0 0 1-4.263-1.762c-.11-.062-.322-.049-.434.018-.442.26-.854.572-1.293.837-.85.511-1.783.435-2.496-.252-1.14-1.1-2.261-2.222-3.362-3.36-.693-.716-.763-1.69-.236-2.534.242-.388.49-.777.766-1.142.179-.236.17-.413.026-.667a17.662 17.662 0 0 1-2.061-5.687c-.125-.71-.216-1.423-.322-2.136v-2.419c.02-.065.055-.13.06-.197.223-2.762 1.066-5.321 2.495-7.691.057-.096.04-.293-.024-.396-.283-.461-.599-.902-.893-1.356-.584-.902-.504-1.909.24-2.67A203.013 203.013 0 0 1 6.553 7.64c.776-.758 1.757-.836 2.665-.249.525.338 1.05.678 1.555 1.046.239.174.421.166.677.036 2.593-1.313 5.35-2.003 8.256-2.024 4.295-.03 8.588-.011 12.883-.013h.516c.141-.87.57-1.329 1.3-1.418.346-.043.692-.065 1.037-.101 1.424-.145 2.847-.287 4.269-.441.109-.012.288-.119.298-.199.08-.66.492-1.026 1.054-1.277ZM26.298 16.12c.119.106.185.167.254.224 2.772 2.351 4.06 5.34 3.758 8.962-.475 5.676-5.55 9.868-11.245 9.338-5.685-.53-9.874-5.6-9.313-11.272.662-6.683 7.332-10.953 13.688-8.767a2.1 2.1 0 0 0 .65.103c1.933.008 3.866.005 5.798.005h.5v-2.725h1.365v2.689H33.1V7.868h-1.374v2.699h-1.364V7.85c-.16-.007-.27-.016-.38-.016H19.888c-2.466 0-4.818.523-7.08 1.504C5.659 12.44 1.64 20.02 3.114 27.637c2.282 11.792 15.624 17.671 25.882 11.407 7.078-4.323 10.11-13.203 7.127-20.83-.167-.428-.389-.615-.836-.61a5.37 5.37 0 0 1-.953-.091c-.78-.13-1.142-.656-1.238-1.39h-6.8l.003-.004Zm-6.234-.706a8.938 8.938 0 0 0-8.98 8.94c-.008 4.94 3.978 8.94 8.922 8.958 4.955.018 8.962-3.974 8.976-8.944a8.92 8.92 0 0 0-8.918-8.954Zm19.93-9.576c-1.776.18-3.502.35-5.229.537-.089.01-.206.157-.232.259-.044.17-.033.358-.033.538-.001 2.865.004 5.73-.008 8.593 0 .31.101.399.4.423.997.083 1.991.202 2.987.303.698.07 1.398.135 2.117.203V5.837h-.002Zm1.42 12.328c.314 0 .58-.029.84.007.434.058.528-.114.527-.529-.015-4.24-.01-8.48-.01-12.72v-.506h-1.357v13.75-.002ZM9.762 9.41c-.487-.325-.897-.608-1.316-.877-.336-.215-.66-.182-.944.103l-3.21 3.208c-.232.232-.304.527-.153.8.231.42.521.807.806 1.24 1.348-1.793 2.94-3.243 4.817-4.474Zm25.48 25.609A19.523 19.523 0 0 1 30.7 39.57c.337.227.63.437.936.626.322.198.642.174.914-.096a738.06 738.06 0 0 0 3.214-3.215c.285-.286.304-.611.09-.948-.187-.293-.384-.577-.614-.92h.002ZM9.31 39.563a18.906 18.906 0 0 1-4.503-4.51c-.201.298-.366.539-.525.781-.31.472-.285.743.11 1.142.833.838 1.68 1.663 2.506 2.508 1.072 1.097 1.028 1.105 2.362.153.011-.008.016-.022.052-.074H9.31Zm7.516 3.125c.091.447.114.834.26 1.166.09.202.366.449.565.454 1.596.036 3.192.03 4.788.003.169-.003.426-.17.484-.322.153-.398.22-.831.339-1.32-2.187.403-4.27.375-6.436.02v-.001Z" fill="#fff"/><path d="m5.47 18.185 1.209.517c-1.803 4.776-1.523 9.367 1.311 13.63 2.83 4.255 6.929 6.346 12.029 6.523v1.373c-5.271-.166-9.546-2.253-12.715-6.457C3.593 28.85 3.47 22.613 5.47 18.185Zm30.413 6.175a2.09 2.09 0 0 1-2.07 2.071 2.092 2.092 0 0 1-2.069-2.07c0-1.128.942-2.07 2.07-2.072a2.09 2.09 0 0 1 2.07 2.07v.001Zm-2.051-.677a.67.67 0 0 0-.698.67.668.668 0 0 0 .681.686.66.66 0 0 0 .675-.648.66.66 0 0 0-.657-.706l-.001-.002ZM6.757 15.709c.413.278.766.514 1.134.76l-.683 1.16-1.222-.637.77-1.285v.002Z" fill="#fff"/><path d="M12.45 24.34c.01-4.177 3.428-7.574 7.614-7.562 4.174.011 7.576 3.445 7.553 7.623-.022 4.161-3.43 7.548-7.594 7.543-4.179-.005-7.582-3.422-7.574-7.603h.002Zm2.757-3.86c-.763.976-1.195 2-1.325 3.199 1.378 0 2.707 0 4.038-.005.068 0 .19-.064.192-.103a.356.356 0 0 0-.091-.247c-.922-.939-1.85-1.873-2.815-2.844Zm.963-.956c.945.945 1.856 1.86 2.773 2.765.08.078.2.116.303.171.036-.123.102-.245.102-.37.009-1.18.005-2.361.004-3.542 0-.104-.021-.21-.035-.337-1.176.135-2.194.561-3.147 1.31v.003Zm7.733 0c-.961-.752-1.984-1.186-3.185-1.311 0 1.376 0 2.708.005 4.04 0 .069.06.194.096.196a.374.374 0 0 0 .246-.093c.937-.927 1.869-1.861 2.84-2.832h-.002Zm-8.695 8.716c.96-.966 1.88-1.89 2.792-2.82.066-.066.078-.186.117-.28-.098-.031-.197-.09-.295-.092-.735-.008-1.47-.004-2.205-.004h-1.731c.13 1.205.562 2.228 1.324 3.196h-.002Zm.952.95c.961.758 1.986 1.186 3.192 1.321 0-1.376.001-2.718-.005-4.06 0-.062-.085-.178-.124-.174a.409.409 0 0 0-.242.115c-.93.914-1.853 1.835-2.821 2.798Zm7.743.008c-.958-.956-1.867-1.87-2.786-2.777-.075-.075-.205-.094-.31-.14-.029.1-.084.197-.086.297-.006.915-.003 1.831-.003 2.747v1.184c1.209-.128 2.232-.564 3.185-1.31Zm2.283-5.52c-.14-1.216-.561-2.25-1.326-3.186-.958.963-1.879 1.885-2.792 2.816-.065.066-.076.183-.112.278.098.03.197.086.294.088 1 .006 1.998.003 2.997.005h.939Zm-.002 1.367c-1.375 0-2.715-.005-4.056.005-.218 0-.273.148-.12.303.944.953 1.895 1.898 2.87 2.87.742-.946 1.176-1.968 1.308-3.178h-.002Zm-6.128-.01a.668.668 0 0 0 .657-.706.669.669 0 0 0-.677-.646.665.665 0 0 0-.676.687.663.663 0 0 0 .698.665h-.002Z" fill="#fff"/></svg>