<svg width="69" height="69" viewBox="0 0 69 69" fill="none" xmlns="http://www.w3.org/2000/svg"><g filter="url(#a)"><circle cx="34.5" cy="34.5" r="30.5" fill="#000"/><circle cx="34.5" cy="34.5" r="30" stroke="#69F8BB"/></g><path fill-rule="evenodd" clip-rule="evenodd" d="M44.694 17a7.614 7.614 0 0 0-7.619 7.594v8.42c-.785.053-1.587.086-2.419.086-.832 0-1.63.034-2.419.081v-8.587a7.62 7.62 0 0 0-15.237 0v20.124a7.62 7.62 0 0 0 15.237 0v-8.42a35.733 35.733 0 0 1 2.419-.087c.832 0 1.63-.033 2.419-.08v8.587a7.62 7.62 0 0 0 15.237 0V24.594A7.614 7.614 0 0 0 44.694 17Zm-20.076 3.111a4.495 4.495 0 0 1 4.496 4.483v8.916a25.68 25.68 0 0 0-6.474 1.83c-.896.394-1.739.897-2.511 1.499V24.594a4.497 4.497 0 0 1 4.489-4.483Zm4.496 24.607a4.496 4.496 0 1 1-8.993.004v-2.023c0-1.783 1.413-3.472 3.781-4.524a22.129 22.129 0 0 1 5.212-1.524v8.067Zm15.58 4.482a4.495 4.495 0 0 1-4.496-4.482v-8.917a25.626 25.626 0 0 0 6.474-1.83c.896-.393 1.74-.897 2.511-1.499v12.246a4.494 4.494 0 0 1-4.489 4.482Zm.717-18.075a22.253 22.253 0 0 1-5.213 1.524v-8.055a4.496 4.496 0 0 1 8.993-.004v2.023c0 1.775-1.413 3.464-3.78 4.512Z" fill="url(#b)"/><defs><linearGradient id="b" x1="-3616.74" y1="-758.021" x2="-3616.57" y2="-758.192" gradientUnits="userSpaceOnUse"><stop stop-color="#00ACE7"/><stop offset="1" stop-color="#69F8BB"/></linearGradient><filter id="a" x="0" y="0" width="69" height="69" filterUnits="userSpaceOnUse" color-interpolation-filters="sRGB"><feFlood flood-opacity="0" result="BackgroundImageFix"/><feColorMatrix in="SourceAlpha" values="0 0 0 0 0 0 0 0 0 0 0 0 0 0 0 0 0 0 127 0" result="hardAlpha"/><feOffset/><feGaussianBlur stdDeviation="2"/><feComposite in2="hardAlpha" operator="out"/><feColorMatrix values="0 0 0 0 0.411765 0 0 0 0 0.972549 0 0 0 0 0.733333 0 0 0 1 0"/><feBlend mode="screen" in2="BackgroundImageFix" result="effect1_dropShadow_0_1"/><feBlend in="SourceGraphic" in2="effect1_dropShadow_0_1" result="shape"/></filter></defs></svg>