<svg width="69" height="69" viewBox="0 0 69 69" fill="none" xmlns="http://www.w3.org/2000/svg"><g filter="url(#a)"><circle cx="34.5" cy="34.5" r="30.5" fill="#000"/><circle cx="34.5" cy="34.5" r="30" stroke="red"/></g><path d="M23.533 46.978c-1.484 0-2.97.003-4.455-.001-.46-.002-.898-.093-1.211-.476-.374-.456-.503-.972-.228-1.51.434-.847.894-1.683 1.363-2.512 1.737-3.07 3.48-6.135 5.224-9.203 2.198-3.87 4.396-7.743 6.596-11.614.864-1.522 1.732-3.042 2.6-4.561.092-.16.195-.311.303-.458.615-.843 1.717-.866 2.321-.018.37.52.684 1.085 1.003 1.64 1.107 1.921 2.206 3.847 3.305 5.773.358.63.684 1.272.779 2.01a4.325 4.325 0 0 1-.527 2.73c-1.02 1.823-2.048 3.642-3.076 5.46-1.836 3.246-3.67 6.492-5.512 9.733-.38.669-.738 1.356-1.323 1.88-.802.721-1.732 1.123-2.818 1.127-1.448.005-2.895.001-4.344.001Zm21.775 0c-1.842 0-3.684.003-5.527 0-.515 0-.983-.123-1.3-.58-.32-.461-.398-.956-.129-1.452a121.43 121.43 0 0 1 1.642-2.922c1.19-2.054 2.386-4.104 3.588-6.151a7.76 7.76 0 0 1 .71-1.042c.526-.626 1.557-.62 2.05.033.396.525.736 1.096 1.07 1.664a1742.54 1742.54 0 0 1 4.409 7.549c.202.347.39.709.534 1.082.278.72-.239 1.625-1.002 1.754-.404.067-.82.079-1.232.082-1.605.01-3.209.004-4.813.004v-.02Z" fill="#fff"/><defs><filter id="a" x="0" y="0" width="69" height="69" filterUnits="userSpaceOnUse" color-interpolation-filters="sRGB"><feFlood flood-opacity="0" result="BackgroundImageFix"/><feColorMatrix in="SourceAlpha" values="0 0 0 0 0 0 0 0 0 0 0 0 0 0 0 0 0 0 127 0" result="hardAlpha"/><feOffset/><feGaussianBlur stdDeviation="2"/><feComposite in2="hardAlpha" operator="out"/><feColorMatrix values="0 0 0 0 1 0 0 0 0 0 0 0 0 0 0 0 0 0 1 0"/><feBlend mode="screen" in2="BackgroundImageFix" result="effect1_dropShadow_0_1"/><feBlend in="SourceGraphic" in2="effect1_dropShadow_0_1" result="shape"/></filter></defs></svg>