<svg width="44" height="42" viewBox="0 0 44 42" fill="none" xmlns="http://www.w3.org/2000/svg"><path fill-rule="evenodd" clip-rule="evenodd" d="M25.165 36.735c-5.06 1.218-10.118 2.438-15.178 3.654-1.116.268-2.202-.156-2.696-1.13-.23-.454-.336-.976-.458-1.478-.99-4.08-1.97-8.162-2.952-12.244-.686-2.846-1.372-5.694-2.056-8.542-.348-1.446.394-2.664 1.844-3.002.38-.088.714-.24 1.036-.462 5.492-3.768 10.988-7.528 16.484-11.29l1.66-1.136c1.022-.696 2.178-.482 2.884.538.432.624.862 1.248 1.282 1.878.104.154.19.196.366.106.384-.198.778-.37 1.168-.552 1.07-.498 2.266-.062 2.762 1.002.412.882.83 1.762 1.232 2.648.094.208.196.274.434.212.516-.132 1.038-.286 1.566-.322 1.134-.08 2.122.694 2.388 1.804 1.72 7.138 3.436 14.278 5.158 21.414.128.528.232 1.046.062 1.58-.26.82-.794 1.376-1.624 1.614-.53.15-1.068.266-1.604.396l-13.758 3.312Zm-.254-1.084c5.076-1.224 10.151-2.442 15.224-3.676.24-.058.486-.212.664-.388.358-.35.382-.794.266-1.268-1.73-7.168-3.454-14.338-5.182-21.508a1.907 1.907 0 0 0-.096-.32c-.21-.484-.584-.756-1.11-.776-.202-.008-.412.048-.612.096-3.818.918-7.636 1.838-11.454 2.758-6.23 1.502-12.462 3.002-18.692 4.502-.836.202-1.214.82-1.014 1.654.45 1.878.906 3.756 1.35 5.636.054.23.144.264.362.212a990.84 990.84 0 0 1 6.237-1.504.617.617 0 0 0 .397-.272c1.002-1.46 2.012-2.916 3.014-4.378.18-.264.416-.422.728-.496 1.956-.466 3.912-.94 5.866-1.41.378-.092.378-.092.398-.466.094-1.654 1.474-2.92 3.178-2.914 1.594.006 2.972 1.352 3.036 2.966a3.12 3.12 0 0 1-2.232 3.128 3.084 3.084 0 0 1-3.572-1.45c-.13-.23-.25-.262-.49-.204-1.898.468-3.8.924-5.702 1.376a.685.685 0 0 0-.436.296c-.99 1.45-1.992 2.892-2.984 4.34a1.188 1.188 0 0 1-.744.512c-2.152.512-4.3 1.036-6.45 1.546-.212.05-.274.122-.218.34.23.906.45 1.812.66 2.722.05.224.142.254.348.204 3.282-.792 6.566-1.578 9.85-2.36.21-.048.276-.13.282-.348.038-1.698 1.466-3.042 3.178-3.012 1.674.032 3.044 1.432 3.04 3.108a3.124 3.124 0 0 1-2.328 3.012 3.101 3.101 0 0 1-3.52-1.536c-.088-.164-.176-.206-.358-.162-3.298.794-6.596 1.582-9.898 2.364-.224.054-.256.142-.204.348.254 1.022.496 2.048.744 3.072.078.326.078.326.417.246 2.133-.514 4.27-1.026 6.4-1.544a1.32 1.32 0 0 1 .797.042c1.742.628 3.486 1.248 5.226 1.876a.995.995 0 0 0 .606.034 1438.96 1438.96 0 0 1 7.704-1.856c.254-.06.34-.16.354-.424.076-1.468 1.234-2.676 2.716-2.868 1.438-.184 2.854.694 3.312 2.056.534 1.586-.186 3.216-1.72 3.896-1.434.636-3.166.034-3.944-1.394-.126-.228-.238-.25-.466-.194a1212.12 1212.12 0 0 1-7.962 1.91c-.226.052-.502.04-.72-.038-1.778-.618-3.548-1.26-5.324-1.89-.122-.044-.27-.078-.39-.048-2.152.508-4.3 1.03-6.452 1.544-.158.038-.206.106-.168.268.44 1.806.87 3.616 1.314 5.42.11.452.412.772.866.87.254.056.544.04.798-.02 5.04-1.204 10.074-2.418 15.11-3.63Zm-12.404-23.86.006.05 19.04-4.586c-.033-.086-.05-.154-.078-.216-.386-.824-.77-1.648-1.158-2.47-.255-.54-.77-.732-1.316-.478-1.728.8-3.454 1.61-5.182 2.416l-7.022 3.278-4.29 2.006Zm-4.412.764.028.058 17.998-8.406c-.066-.11-.104-.178-.148-.242-.372-.546-.745-1.094-1.12-1.64-.408-.592-.842-.666-1.44-.258L10.597 10.84c-.834.57-1.668 1.144-2.502 1.716ZM32.983 29.53a2.018 2.018 0 0 0-2.402-1.49c-1.062.242-1.736 1.33-1.488 2.398a1.991 1.991 0 0 0 2.41 1.496 2.01 2.01 0 0 0 1.48-2.404ZM26.3 13.765a1.995 1.995 0 0 0-3.878.942 1.99 1.99 0 0 0 2.4 1.474 1.986 1.986 0 0 0 1.478-2.416ZM16.95 24.78a1.995 1.995 0 0 0 3.878-.948 1.995 1.995 0 0 0-2.404-1.472 1.988 1.988 0 0 0-1.474 2.42Z" fill="#fff"/><path d="M25.165 36.735v-.25h-.03l-.028.007.058.243ZM9.987 40.39l.059.243-.059-.243Zm-2.696-1.13.223-.113-.223.113Zm-.458-1.478-.243.06.243-.06ZM3.881 25.537l.243-.058-.243.058Zm-2.056-8.542.243-.058-.243.058Zm1.844-3.002-.056-.243.056.243Zm1.036-.462-.141-.206.141.206ZM21.19 2.241l.142.207-.142-.207Zm1.66-1.136L22.708.9l.14.206Zm2.884.538.206-.142-.206.142Zm1.282 1.878-.208.139v.002l.208-.14Zm.366.106.114.223-.114-.223Zm1.168-.552-.106-.226.106.226Zm2.762 1.002-.227.106.227-.106Zm1.232 2.648.228-.102v-.001l-.228.103Zm.434.212-.062-.242h-.002l.064.242Zm1.566-.322.017.25-.017-.25Zm2.388 1.804-.243.058.243-.058Zm5.158 21.414-.243.059.243-.059Zm.062 1.58-.238-.076.238.076Zm-1.624 1.614.068.24h.001l-.069-.24Zm-1.604.396.058.243-.058-.243Zm-13.758 3.312v.25h.03l.029-.007-.059-.243Zm-.254-1.084-.058-.243.058.493v-.25Zm15.224-3.676-.059-.243.059.243Zm.664-.388-.175-.179-.001.002.176.177Zm.266-1.268-.243.059.243-.059ZM35.883 8.811l-.244.057v.002l.244-.059Zm-.096-.32.23-.099-.23.1Zm-1.11-.776-.01.25.01-.25Zm-.612.096.059.243-.059-.243ZM22.611 10.57l-.058-.243.058.243ZM3.92 15.071l-.059-.243.059.243Zm-1.014 1.654.243-.058-.243.058Zm1.35 5.636.243-.057-.243.057Zm.362.212.058.243h.002l-.06-.243Zm6.237-1.504-.057-.243.057.243Zm.397-.272-.206-.141.206.141Zm3.014-4.378.206.142-.206-.142Zm.728-.496.058.243-.058-.243Zm5.866-1.41.059.243-.059-.243Zm.398-.466-.25-.014v.001l.25.013Zm3.178-2.914v-.25.25ZM27.47 14.1l-.25.01.25-.01Zm-2.232 3.128-.07-.24.07.24Zm-3.572-1.45.218-.122-.218.122Zm-.49-.204-.059-.243h-.001l.06.243Zm-5.702 1.376-.058-.243.058.243Zm-.436.296-.205-.142-.001.001.206.141Zm-2.984 4.34-.207-.141.207.141Zm-.744.512-.058-.243.058.243Zm-6.45 1.546.058.244-.058-.244Zm-.218.34.242-.061-.242.061Zm.66 2.722.244-.054v-.002l-.244.056Zm.348.204-.058-.243.058.243Zm9.85-2.36-.056-.244-.002.001.058.243Zm.282-.348.25.007v-.001l-.25-.006Zm3.178-3.012.005-.25-.005.25ZM22 24.298h.25H22Zm-2.328 3.012-.062-.242.062.242Zm-3.52-1.536-.22.118v.001l.22-.119Zm-.358-.162.059.243-.06-.243Zm-9.898 2.364-.057-.243.057.243Zm-.204.348.243-.06v-.002l-.243.062Zm.744 3.072.243-.058-.243.058Zm.417.246.058.244h.001l-.059-.244Zm6.4-1.544-.057-.243h-.001l.059.243Zm.797.042-.087.235h.002l.085-.235Zm5.226 1.876-.085.235.085-.235Zm.606.034-.06-.243.06.243Zm7.704-1.856-.058-.243.058.243Zm.354-.424.25.014v-.001l-.25-.013Zm2.716-2.868-.032-.248.032.248Zm3.312 2.056-.237.08.237-.08Zm-1.72 3.896-.101-.228.101.228Zm-3.944-1.394.22-.12h-.001l-.22.12Zm-.466-.194.059.243-.06-.243Zm-7.962 1.91.056.244h.001l-.057-.244Zm-.72-.038.084-.235-.002-.001-.082.236Zm-5.324-1.89-.085.235h.001l.084-.235Zm-.39-.048.058.244.003-.001-.06-.243ZM6.99 32.744l-.058-.243.058.243Zm-.168.268-.243.057v.002l.243-.059Zm1.314 5.42.243-.059-.243.06Zm.866.87.054-.244h-.001l-.053.244Zm.798-.02.057.244-.057-.244Zm15.11-3.63.059.243-.059-.493v.25Zm-12.404-23.86v-.25h-.281l.032.28.249-.03Zm.006.05-.249.03.033.28.274-.067-.058-.243Zm19.04-4.586.058.243.275-.066-.1-.264-.233.087Zm-.078-.216.227-.104-.001-.002-.226.106Zm-1.158-2.47.226-.106-.226.106ZM29 4.092l.105.227L29 4.092Zm-5.182 2.416.106.227-.106-.227Zm-7.022 3.278-.106-.226.106.226Zm-4.29 2.006v.25h.055l.05-.023-.105-.227Zm-4.412.764.224-.11-.068-.14h-.156v.25Zm.028.058-.225.11.108.22.223-.103-.106-.227ZM26.12 4.208l.106.227.252-.118-.144-.238-.214.13Zm-.148-.242-.207.141.207-.14Zm-1.12-1.64-.206.142.206-.142Zm-1.44-.258-.14-.206h-.001l.141.206ZM10.597 10.84l.14.207-.14-.207Zm-2.502 1.716-.142-.206-.665.456h.807v-.25ZM32.983 29.53l-.243.058.493-.058h-.25Zm-2.402-1.49.056.244-.056-.244Zm-1.488 2.398.243-.056-.243.056Zm2.41 1.496.058.243-.058-.243Zm1.48-2.404.244-.057-.494.057h.25ZM26.3 13.765l-.243.06.046.19h.197v-.25Zm-2.408-1.464-.059-.243.059.243Zm-1.47 2.406.243-.059-.243.06Zm2.4 1.474-.057-.243.057.243Zm1.478-2.416.243-.059-.047-.19H26.3v.25ZM16.95 24.78l.243-.059-.493.06h.25Zm2.41 1.46-.06-.242.06.242Zm1.468-2.408.243-.059-.243.06Zm-2.404-1.472.058.243-.058-.243Zm-1.474 2.42-.243.06.493-.06h-.25Zm8.156 11.713c-5.061 1.218-10.119 2.438-15.178 3.654l.117.486c5.06-1.216 10.117-2.436 15.178-3.654l-.117-.486ZM9.929 40.146c-1.022.245-1.981-.145-2.415-1l-.446.226c.555 1.093 1.767 1.551 2.978 1.26l-.117-.486Zm-2.415-1c-.214-.421-.312-.906-.438-1.424l-.486.118c.118.486.23 1.046.478 1.532l.446-.226Zm-.438-1.424c-.99-4.08-1.97-8.161-2.952-12.243l-.486.117C4.62 29.677 5.6 33.76 6.59 37.84l.486-.118ZM4.124 25.48c-.686-2.846-1.372-5.694-2.056-8.542l-.486.117c.684 2.848 1.37 5.696 2.056 8.542l.486-.117Zm-2.056-8.542c-.16-.667-.067-1.264.218-1.728.284-.463.772-.816 1.44-.972l-.114-.487c-.782.182-1.39.607-1.753 1.198-.362.591-.465 1.327-.277 2.106l.486-.117Zm1.657-2.7a3.217 3.217 0 0 0 1.122-.5l-.284-.412a2.72 2.72 0 0 1-.95.425l.112.487Zm1.122-.5C10.339 9.97 15.835 6.21 21.33 2.447l-.283-.412c-5.496 3.762-10.992 7.522-16.484 11.29l.283.412ZM21.33 2.447l1.659-1.136L22.707.9c-.55.378-1.105.756-1.659 1.136l.283.412Zm1.658-1.135c.464-.316.943-.416 1.375-.335.432.08.843.345 1.164.809l.411-.285c-.385-.557-.905-.908-1.484-1.016-.578-.108-1.189.033-1.747.414l.281.413Zm2.539.473c.431.624.86 1.247 1.279 1.875l.416-.277C26.8 2.75 26.37 2.125 25.939 1.5l-.411.284Zm1.28 1.877a.574.574 0 0 0 .285.241c.151.05.292.003.402-.053l-.228-.445a.205.205 0 0 1-.048.02h.009c.006 0 .013 0 .02.003.016.005.021.012.015.006a.33.33 0 0 1-.041-.053l-.414.28Zm.688.187c.378-.195.761-.362 1.159-.547l-.212-.453c-.382.178-.787.355-1.177.556l.23.444Zm1.158-.547c.946-.44 1.993-.058 2.43.88l.453-.21c-.553-1.19-1.899-1.68-3.094-1.123l.211.453Zm2.43.881c.413.884.83 1.761 1.231 2.646l.456-.207c-.403-.888-.823-1.77-1.234-2.65l-.453.211Zm1.231 2.645a.643.643 0 0 0 .276.326c.148.077.307.062.449.025l-.127-.484c-.095.025-.106.008-.092.016.01.005-.01.002-.05-.088l-.456.205Zm.723.351c.531-.135 1.023-.28 1.522-.314l-.034-.5c-.557.039-1.109.202-1.611.33l.123.484Zm1.523-.314c1.003-.071 1.887.613 2.127 1.612l.486-.116c-.292-1.22-1.384-2.084-2.649-1.995l.036.499Zm2.127 1.613c1.72 7.138 3.436 14.278 5.158 21.414l.486-.117c-1.722-7.137-3.437-14.276-5.158-21.414l-.486.117Zm5.158 21.414c.128.53.214.985.067 1.445l.477.152c.193-.608.07-1.189-.058-1.715l-.486.118Zm.067 1.445c-.237.747-.711 1.237-1.455 1.45l.138.48c.917-.262 1.51-.885 1.794-1.778l-.477-.152Zm-1.454 1.45c-.524.148-1.05.261-1.595.393l.118.486c.528-.128 1.077-.247 1.613-.398l-.136-.481Zm-1.595.393-6.879 1.656-6.878 1.656.117.486 6.878-1.656 6.88-1.656-.118-.486Zm-13.699 3.305v.5-.5Zm-.195-.59c5.076-1.225 10.151-2.443 15.224-3.677l-.118-.486c-5.072 1.234-10.147 2.452-15.223 3.676l.117.486Zm15.223-3.677c.294-.07.579-.252.782-.453l-.352-.355c-.153.15-.36.277-.547.322l.117.486Zm.78-.452c.45-.439.46-.992.335-1.506l-.486.118c.106.434.07.769-.198 1.03l.35.358Zm.335-1.505c-1.73-7.168-3.454-14.338-5.182-21.508l-.486.117c1.728 7.17 3.452 14.34 5.182 21.508l.486-.117ZM36.126 8.754c-.025-.105-.055-.236-.11-.362l-.459.198c.034.079.056.168.082.278l.487-.114Zm-.11-.362a1.552 1.552 0 0 0-.521-.667 1.474 1.474 0 0 0-.809-.26l-.019.5a.976.976 0 0 1 .54.168c.141.1.26.25.35.458l.46-.2Zm-1.33-.927c-.244-.01-.494.059-.68.103l.118.486c.213-.051.383-.095.543-.089l.02-.5Zm-.679.103c-3.818.918-7.637 1.838-11.454 2.758l.117.486c3.817-.92 7.636-1.84 11.454-2.758l-.117-.486Zm-11.454 2.758c-6.23 1.502-12.462 3.002-18.693 4.502l.117.486c6.23-1.5 12.462-3 18.693-4.502l-.117-.486ZM3.86 14.828c-.466.113-.833.35-1.05.703-.216.353-.26.787-.148 1.253l.486-.117c-.088-.369-.043-.66.089-.875.131-.215.37-.388.74-.478l-.117-.486Zm-1.198 1.955c.45 1.88.905 3.756 1.35 5.636l.486-.115c-.444-1.88-.9-3.76-1.35-5.637l-.486.116Zm1.35 5.635c.03.127.086.29.243.375.148.08.31.05.42.023l-.116-.486a.44.44 0 0 1-.086.014c-.011 0 0-.002.02.01.01.004.018.01.023.016l.006.006a.305.305 0 0 1-.024-.072l-.487.114Zm.665.398c2.077-.51 4.156-1.008 6.236-1.504l-.117-.486c-2.079.496-4.16.994-6.238 1.504l.119.486Zm6.235-1.504a.866.866 0 0 0 .545-.373l-.412-.283a.37.37 0 0 1-.248.17l.115.486Zm.545-.373c1-1.457 2.013-2.919 3.014-4.378l-.413-.283c-1.003 1.464-2.009 2.914-3.013 4.378l.412.283Zm3.014-4.379a.914.914 0 0 1 .58-.393l-.116-.487c-.37.088-.66.281-.877.598l.413.282Zm.58-.394c1.957-.466 3.913-.94 5.867-1.41l-.117-.486c-1.955.47-3.91.944-5.866 1.41l.116.486Zm5.867-1.41c.09-.022.175-.042.243-.066a.496.496 0 0 0 .222-.142.481.481 0 0 0 .103-.244c.012-.07.016-.156.02-.244l-.499-.026a2.14 2.14 0 0 1-.014.191c-.006.035-.009.02.01-.001.017-.02.03-.019-.008-.006a2.355 2.355 0 0 1-.195.052l.118.486Zm.588-.695c.086-1.515 1.351-2.683 2.928-2.678l.001-.5c-1.83-.006-3.326 1.357-3.428 3.15l.5.028Zm2.928-2.678c1.458.006 2.729 1.243 2.787 2.726l.5-.02c-.07-1.745-1.554-3.2-3.286-3.206l-.001.5Zm2.787 2.726a2.87 2.87 0 0 1-2.051 2.878l.139.48a3.37 3.37 0 0 0 2.411-3.378l-.499.02Zm-2.051 2.878a2.835 2.835 0 0 1-3.285-1.332l-.436.244a3.334 3.334 0 0 0 3.86 1.568l-.14-.48Zm-3.285-1.333c-.076-.134-.175-.26-.332-.32-.15-.058-.304-.035-.435-.004l.117.486c.11-.026.136-.016.138-.016l.004.002a.43.43 0 0 1 .073.098l.435-.246Zm-.768-.323a727.44 727.44 0 0 1-5.7 1.375l.115.486c1.903-.452 3.806-.908 5.705-1.376l-.12-.486Zm-5.7 1.375a.933.933 0 0 0-.583.397l.41.285a.437.437 0 0 1 .289-.196l-.117-.486Zm-.584.398c-.992 1.451-1.99 2.889-2.985 4.34l.413.282c.99-1.444 1.995-2.891 2.985-4.34l-.413-.282Zm-2.985 4.34a.94.94 0 0 1-.595.41l.115.486c.381-.09.673-.29.893-.614l-.413-.282Zm-.595.41c-2.157.513-4.297 1.035-6.45 1.546l.116.486c2.146-.509 4.303-1.035 6.45-1.546l-.116-.486ZM4.803 23.4c-.107.025-.264.072-.358.21-.1.146-.076.313-.045.435l.485-.124a.45.45 0 0 1-.012-.067l-.002.01a.099.099 0 0 1-.013.027c-.013.02-.026.024-.017.02a.616.616 0 0 1 .078-.024l-.115-.487Zm-.403.645c.23.904.45 1.808.66 2.716l.486-.112c-.21-.912-.43-1.82-.661-2.727l-.485.123Zm.659 2.714c.028.128.085.288.242.372.146.077.306.046.41.021l-.119-.486a.636.636 0 0 1-.08.014c-.01 0 .003-.002.024.009a.1.1 0 0 1 .024.018c.006.006.008.01.007.009a.421.421 0 0 1-.02-.065l-.488.108Zm.651.393c3.281-.792 6.565-1.578 9.849-2.36l-.116-.486c-3.284.782-6.569 1.568-9.85 2.36l.117.486Zm9.847-2.36a.612.612 0 0 0 .356-.196.623.623 0 0 0 .12-.388l-.5-.014c-.002.093-.018.099-.009.088.01-.013.009.003-.079.023l.112.488Zm.476-.585c.035-1.557 1.345-2.796 2.924-2.768l.008-.5c-1.845-.032-3.39 1.417-3.432 3.257l.5.01Zm2.923-2.768a2.873 2.873 0 0 1 2.795 2.858h.5c.004-1.812-1.475-3.323-3.285-3.358l-.01.5Zm2.795 2.857a2.874 2.874 0 0 1-2.14 2.771l.124.484a3.374 3.374 0 0 0 2.516-3.253l-.5-.002Zm-2.14 2.771a2.851 2.851 0 0 1-3.238-1.413l-.44.238a3.351 3.351 0 0 0 3.802 1.66l-.124-.485Zm-3.237-1.412a.575.575 0 0 0-.261-.268.567.567 0 0 0-.377-.019l.118.486c.07-.017.07-.004.052-.012-.019-.009-.008-.015.027.05l.44-.237Zm-.638-.287a2789.96 2789.96 0 0 1-9.896 2.364l.115.486c3.302-.782 6.6-1.57 9.899-2.364l-.118-.486ZM5.84 27.732c-.123.03-.283.086-.367.241-.08.147-.047.308-.02.412l.484-.124a.645.645 0 0 1-.015-.077c0-.009.002.006-.01.027a.1.1 0 0 1-.018.024c-.005.006-.009.007-.007.006a.458.458 0 0 1 .07-.023l-.117-.486Zm-.388.651c.253 1.021.495 2.045.743 3.07l.486-.116c-.247-1.023-.49-2.051-.744-3.074l-.485.12Zm.742 3.07c.018.076.037.154.06.215a.4.4 0 0 0 .168.218.41.41 0 0 0 .267.044c.065-.008.145-.027.224-.045l-.115-.487-.107.025a.731.731 0 0 1-.064.011c-.015.002-.015.001-.007.002.01 0 .03.005.055.019.05.03.058.07.048.042a.668.668 0 0 1-.017-.058c-.008-.028-.015-.06-.025-.102l-.487.116Zm.72.431c2.133-.514 4.269-1.026 6.4-1.544l-.117-.486c-2.132.518-4.267 1.03-6.4 1.544l.117.486Zm6.4-1.544a1.07 1.07 0 0 1 .651.034l.173-.47a1.57 1.57 0 0 0-.94-.05l.116.486Zm.653.034c1.748.63 3.482 1.247 5.226 1.876l.17-.47c-1.736-.627-3.49-1.25-5.226-1.876l-.17.47Zm5.227 1.876c.25.09.488.106.75.042l-.12-.486a.747.747 0 0 1-.461-.026l-.17.47Zm.749.042c2.566-.624 5.133-1.246 7.703-1.856l-.116-.486c-2.57.61-5.139 1.232-7.705 1.856l.118.486Zm7.702-1.855c.145-.035.294-.091.401-.218a.715.715 0 0 0 .146-.436l-.5-.028c-.005.114-.026.138-.028.142-.004.003-.024.027-.134.053l.115.487Zm.547-.655c.069-1.342 1.13-2.456 2.498-2.633l-.064-.496c-1.596.207-2.852 1.509-2.933 3.103l.499.026Zm2.498-2.633c1.321-.169 2.623.64 3.043 1.888l.474-.16c-.497-1.476-2.027-2.423-3.58-2.224l.063.496Zm3.043 1.888c.493 1.463-.168 2.96-1.584 3.588l.202.457c1.652-.732 2.431-2.496 1.856-4.205l-.474.16Zm-1.584 3.588c-1.31.58-2.905.033-3.624-1.285l-.439.239c.838 1.538 2.708 2.194 4.265 1.503l-.202-.457Zm-3.624-1.287c-.074-.132-.17-.258-.326-.316-.149-.056-.3-.029-.419 0l.12.486c.108-.027.128-.017.124-.018-.012-.005.01-.006.063.09l.438-.242Zm-.744-.316c-2.652.644-5.305 1.284-7.96 1.91l.114.487c2.657-.627 5.311-1.267 7.964-1.91l-.118-.487Zm-7.96 1.91c-.181.042-.409.03-.579-.03l-.168.47c.265.096.59.109.86.047l-.112-.487Zm-.58-.031c-1.778-.618-3.545-1.259-5.323-1.89l-.168.472c1.774.629 3.547 1.272 5.326 1.89l.164-.472Zm-5.322-1.889c-.13-.047-.34-.105-.536-.055l.122.485c.043-.011.13 0 .244.04l.17-.47Zm-.532-.056c-2.153.508-4.303 1.03-6.453 1.544l.116.486c2.153-.514 4.3-1.036 6.452-1.543l-.115-.487ZM6.933 32.5a.484.484 0 0 0-.31.196.473.473 0 0 0-.043.372l.487-.114a.256.256 0 0 1-.006-.028v-.006c0 .002 0 .008-.003.016a.115.115 0 0 1-.014.03c-.014.022-.03.03-.031.032l.008-.003a.27.27 0 0 1 .029-.009l-.117-.486Zm-.353.57c.44 1.804.87 3.617 1.314 5.42l.486-.118c-.444-1.805-.874-3.612-1.314-5.42l-.486.118Zm1.314 5.42c.13.537.5.936 1.056 1.056l.106-.49c-.352-.075-.587-.316-.676-.684l-.486.118Zm1.055 1.055c.299.066.628.046.91-.02l-.116-.487a1.605 1.605 0 0 1-.686.019l-.108.488Zm.91-.02c5.04-1.205 10.075-2.419 15.11-3.63l-.116-.487c-5.037 1.212-10.07 2.426-15.11 3.63l.116.486ZM24.91 35.4v.5-.5ZM12.257 11.82l.006.05.497-.059-.006-.05-.497.058Zm.313.263 19.04-4.586-.117-.486-19.04 4.586.117.486Zm19.216-4.916-.038-.11a1.297 1.297 0 0 0-.047-.123l-.455.208a.76.76 0 0 1 .028.075c.011.032.026.077.044.125l.468-.175Zm-.086-.235c-.385-.823-.77-1.648-1.158-2.47l-.452.213c.388.821.771 1.645 1.157 2.47l.453-.213Zm-1.158-2.47c-.15-.32-.388-.555-.689-.665-.3-.11-.635-.084-.958.067l.21.453c.223-.104.42-.108.576-.05.158.057.305.187.41.408l.451-.213Zm-1.647-.599c-1.728.8-3.455 1.611-5.182 2.417l.211.453c1.728-.806 3.454-1.616 5.181-2.416l-.21-.454ZM23.713 6.28 16.69 9.559l.212.453 7.022-3.278-.211-.453ZM16.69 9.559l-2.145 1.003-2.145 1.003.212.453 2.145-1.003c.715-.335 1.43-.67 2.145-1.003l-.212-.453Zm-4.184 1.982v.5-.5ZM7.87 12.665l.028.058.45-.22-.029-.057-.449.219Zm.359.175 17.998-8.406-.212-.453-17.998 8.406.212.453Zm18.106-8.762c-.06-.1-.107-.182-.156-.254l-.412.283c.038.056.068.11.14.23l.428-.259Zm-.156-.254c-.372-.545-.744-1.094-1.12-1.64l-.412.283c.375.545.747 1.093 1.119 1.64l.413-.283Zm-1.12-1.64c-.221-.322-.482-.55-.811-.609-.328-.058-.654.066-.976.286l.282.413c.275-.188.466-.232.607-.207.139.025.3.13.486.4l.411-.283Zm-1.787-.323-12.816 8.772.282.413 12.816-8.772-.282-.413Zm-12.816 8.772c-.835.57-1.67 1.144-2.503 1.716l.283.412c.835-.572 1.668-1.145 2.502-1.715l-.282-.413Zm-2.361 2.172v-.5.5Zm25.132 16.667a2.268 2.268 0 0 0-2.702-1.677l.112.488a1.768 1.768 0 0 1 2.103 1.304l.487-.115Zm-2.701-1.677c-1.2.274-1.956 1.498-1.677 2.699l.487-.113c-.217-.935.375-1.887 1.3-2.098l-.11-.488Zm-1.677 2.699a2.241 2.241 0 0 0 2.712 1.682l-.117-.486a1.741 1.741 0 0 1-2.108-1.31l-.487.114Zm2.712 1.682a2.26 2.26 0 0 0 1.666-2.704l-.487.114a1.76 1.76 0 0 1-1.296 2.104l.117.486Zm1.172-2.647h.5-.5Zm-6.191-15.823a2.245 2.245 0 0 0-2.71-1.648l.117.486a1.745 1.745 0 0 1 2.107 1.28l.486-.118Zm-2.71-1.648a2.248 2.248 0 0 0-1.654 2.709l.486-.12a1.748 1.748 0 0 1 1.285-2.103l-.117-.486Zm-1.654 2.708a2.24 2.24 0 0 0 2.701 1.658l-.116-.486a1.74 1.74 0 0 1-2.1-1.29l-.485.118Zm2.701 1.658a2.236 2.236 0 0 0 1.663-2.718l-.486.118a1.736 1.736 0 0 1-1.292 2.114l.115.486Zm1.42-2.909v.5-.5Zm-9.59 11.323a2.245 2.245 0 0 0 2.713 1.644l-.122-.485a1.745 1.745 0 0 1-2.106-1.277l-.486.118Zm2.713 1.644a2.25 2.25 0 0 0 1.65-2.71l-.486.118a1.75 1.75 0 0 1-1.285 2.107l.121.485Zm1.65-2.71a2.245 2.245 0 0 0-2.706-1.656l.117.486a1.745 1.745 0 0 1 2.103 1.288l.486-.118Zm-2.706-1.656a2.238 2.238 0 0 0-1.658 2.723l.486-.12a1.738 1.738 0 0 1 1.29-2.117l-.118-.486Zm-1.165 2.663h-.5.5Z" fill="#fff"/></svg>