<svg width="433" height="8" viewBox="0 0 433 8" fill="none" xmlns="http://www.w3.org/2000/svg"><path d="M216.144 7.032h-41.233A7.032 7.032 0 0 1 167.879 0h48.265v7.032Z" fill="#FFAE00"/><path opacity=".8" d="M153.19 2.835a4.197 4.197 0 0 1-4.197 4.197h-25.182a4.197 4.197 0 0 1-4.197-4.197V0h33.576v2.835Z" fill="#FFAE00"/><path opacity=".65" d="M107.022 2.835a4.197 4.197 0 0 1-4.197 4.197H83.939a4.197 4.197 0 0 1-4.197-4.197V0h27.28v2.835Z" fill="#FFAE00"/><path opacity=".45" d="M67.152 2.835a4.197 4.197 0 0 1-4.197 4.197H50.364a4.197 4.197 0 0 1-4.197-4.197V0h20.985v2.835Z" fill="#FFAE00"/><path opacity=".28" d="M33.575 2.835a4.197 4.197 0 0 1-4.197 4.197h-6.295a4.197 4.197 0 0 1-4.197-4.197V0h14.69v2.835Z" fill="#FFAE00"/><path opacity=".12" d="M8.394 2.835a4.197 4.197 0 0 1-8.394 0V0h8.394v2.835Z" fill="#FFAE00"/><path d="M215.952 0h48.265a7.032 7.032 0 0 1-7.032 7.032h-41.233V0Z" fill="#FFAE00"/><path opacity=".8" d="M278.907 0h33.575v2.835a4.197 4.197 0 0 1-4.197 4.197h-25.181a4.197 4.197 0 0 1-4.197-4.197V0Z" fill="#FFAE00"/><path opacity=".65" d="M325.073 0h27.281v2.835a4.197 4.197 0 0 1-4.197 4.197H329.27a4.197 4.197 0 0 1-4.197-4.197V0Z" fill="#FFAE00"/><path opacity=".45" d="M364.945 0h20.984v2.835a4.197 4.197 0 0 1-4.197 4.197h-12.59a4.197 4.197 0 0 1-4.197-4.197V0Z" fill="#FFAE00"/><path opacity=".28" d="M398.52 0h14.69v2.835a4.197 4.197 0 0 1-4.197 4.197h-6.296a4.197 4.197 0 0 1-4.197-4.197V0Z" fill="#FFAE00"/><path opacity=".12" d="M423.702 0h8.394v2.835a4.197 4.197 0 1 1-8.394 0V0Z" fill="#FFAE00"/></svg>