<svg width="78" height="66" viewBox="0 0 78 66" fill="none" xmlns="http://www.w3.org/2000/svg"><g filter="url(#a)"><path d="M24 48.083c.187-.34.471-.444.85-.44 1.356.018 2.713.002 4.07.013.207.001.279-.064.332-.264 1.03-3.886 3.46-6.337 7.326-7.19 4.852-1.069 9.806 2.206 10.917 7.133.022.097.048.192.079.314h5.504c.088 0 .177-.001.264.002.388.015.65.26.658.614.008.362-.262.643-.655.65-.925.015-1.8.23-2.613.673-1.541.842-2.559 2.113-2.984 3.855-.1.407-.354.596-.71.55-.33-.042-.53-.304-.535-.703-.002-.109 0-.218 0-.328v-4.031H30.257v.765c0 1.182.007 2.365 0 3.547-.002.441-.195.69-.53.745-.345.055-.67-.145-.704-.506-.1-1.077-.722-1.845-1.426-2.56a7.08 7.08 0 0 0-3.06-1.855c-.204-.061-.36-.295-.537-.449v-.537.002Zm13.74-6.72c-.042-.013-.07-.027-.096-.026-.088.001-.176.002-.263.014a8.388 8.388 0 0 0-2.516.75c-.189.09-.25.197-.248.405.008 1.61.003 3.22.005 4.83 0 .096.01.192.016.294h3.103v-6.268h-.001Zm1.281-.031v6.295h3.1v-4.581c0-.885.002-.89-.825-1.206-.73-.278-1.48-.475-2.275-.508Zm-5.66 1.726c-1.476 1.225-2.426 2.72-2.878 4.574h2.879v-4.574Zm12.91 4.575c-.456-1.849-1.399-3.348-2.872-4.569v4.569h2.871Zm-19.03 1.295c.578.514 1.154 1.027 1.753 1.557v-1.557H27.24Zm20.51 1.5 1.557-1.49H47.75v1.49Z" fill="#FFCE0D"/></g><path d="M4.359 64 39 4l34.641 60H4.359Z" stroke="#FFCE0D" stroke-width="4"/><defs><filter id="a" x="20" y="36" width="38" height="22" filterUnits="userSpaceOnUse" color-interpolation-filters="sRGB"><feFlood flood-opacity="0" result="BackgroundImageFix"/><feColorMatrix in="SourceAlpha" values="0 0 0 0 0 0 0 0 0 0 0 0 0 0 0 0 0 0 127 0" result="hardAlpha"/><feOffset/><feGaussianBlur stdDeviation="2"/><feComposite in2="hardAlpha" operator="out"/><feColorMatrix values="0 0 0 0 1 0 0 0 0 0.953431 0 0 0 0 0.6875 0 0 0 1 0"/><feBlend in2="BackgroundImageFix" result="effect1_dropShadow_0_1"/><feBlend in="SourceGraphic" in2="effect1_dropShadow_0_1" result="shape"/></filter></defs></svg>