<svg width="36" height="26" viewBox="0 0 36 26" fill="none" xmlns="http://www.w3.org/2000/svg">
<g clip-path="url(#clip0_13_4159)">
<path d="M8.46926 16.9632C8.10855 16.9627 7.75578 17.065 7.45562 17.2572C7.15546 17.4494 6.92141 17.7229 6.7831 18.043C6.64479 18.3631 6.60845 18.7155 6.67867 19.0555C6.7489 19.3954 6.92253 19.7077 7.17759 19.9528C7.43265 20.1979 7.75766 20.3648 8.11146 20.4323C8.46527 20.4997 8.83195 20.4648 9.16509 20.3319C9.49823 20.199 9.78283 19.9741 9.98286 19.6857C10.1829 19.3972 10.2894 19.0583 10.2888 18.7116C10.288 18.2482 10.096 17.8039 9.75497 17.4762C9.41392 17.1484 8.95158 16.964 8.46926 16.9632ZM8.46926 19.4614C8.31482 19.4619 8.16368 19.4185 8.03499 19.3364C7.90629 19.2544 7.80582 19.1375 7.74632 19.0005C7.68681 18.8636 7.67093 18.7128 7.7007 18.5671C7.73046 18.4215 7.80454 18.2877 7.91353 18.1825C8.02253 18.0774 8.16154 18.0057 8.31297 17.9765C8.4644 17.9474 8.62142 17.9621 8.76416 18.0187C8.9069 18.0754 9.02893 18.1715 9.11479 18.2948C9.20066 18.4182 9.24649 18.5632 9.24649 18.7116C9.24337 18.908 9.16021 19.0953 9.01487 19.2334C8.86953 19.3715 8.67362 19.4492 8.46926 19.4499V19.4614Z" fill="#0080FF"/>
<path d="M26.9321 16.9632C26.5714 16.9627 26.2187 17.065 25.9185 17.2572C25.6184 17.4494 25.3843 17.7229 25.246 18.043C25.1077 18.3631 25.0713 18.7155 25.1416 19.0555C25.2118 19.3954 25.3854 19.7077 25.6405 19.9528C25.8955 20.1979 26.2205 20.3648 26.5744 20.4323C26.9282 20.4997 27.2948 20.4648 27.628 20.3319C27.9611 20.199 28.2457 19.9741 28.4457 19.6857C28.6458 19.3972 28.7522 19.0583 28.7517 18.7116C28.7509 18.2482 28.5589 17.8039 28.2179 17.4762C27.8768 17.1484 27.4145 16.964 26.9321 16.9632ZM26.9321 19.4614C26.7777 19.4619 26.6266 19.4185 26.4979 19.3364C26.3692 19.2544 26.2687 19.1375 26.2092 19.0005C26.1497 18.8636 26.1338 18.7128 26.1636 18.5671C26.1934 18.4215 26.2674 18.2877 26.3764 18.1825C26.4854 18.0774 26.6244 18.0057 26.7759 17.9765C26.9273 17.9474 27.0843 17.9621 27.2271 18.0187C27.3698 18.0754 27.4918 18.1715 27.5777 18.2948C27.6635 18.4182 27.7094 18.5632 27.7094 18.7116C27.7063 18.908 27.6231 19.0953 27.4778 19.2334C27.3324 19.3715 27.1365 19.4492 26.9321 19.4499V19.4614Z" fill="#0080FF"/>
<path d="M35.3895 17.8217C35.3719 17.7528 35.3395 17.6882 35.2944 17.632C35.2492 17.5758 35.1924 17.5293 35.1275 17.4955C34.919 17.3868 29.9548 14.8371 26.9323 14.8371H19.5709L19.0318 12.5794C18.9683 12.3109 18.8117 12.0712 18.5876 11.8996C18.3636 11.728 18.0855 11.6347 17.799 11.635H17.1528L17.0783 11.326C17.052 11.216 16.9876 11.1179 16.8956 11.0477C16.8036 10.9775 16.6895 10.9394 16.5721 10.9397H12.7008C12.617 10.9387 12.5342 10.9573 12.4596 10.9941L4.8272 14.8257H4.12441L3.4514 12.7882H4.95525C5.02493 12.7902 5.0943 12.7786 5.15925 12.7543C5.22421 12.73 5.28343 12.6934 5.33341 12.6467C5.38339 12.6 5.42311 12.5442 5.45023 12.4825C5.47735 12.4208 5.4913 12.3545 5.49127 12.2875V10.6364C5.49135 10.5357 5.45985 10.4374 5.40088 10.3541C5.34192 10.2709 5.25823 10.2067 5.16072 10.1699L0.708744 8.52168C0.629856 8.49243 0.544746 8.48206 0.460758 8.49148C0.37677 8.50089 0.296428 8.5298 0.226664 8.57571C0.1569 8.62163 0.0998095 8.68316 0.0603203 8.75501C0.0208311 8.82686 0.000128805 8.90686 0 8.98811V12.2875C0 12.4203 0.0549052 12.5477 0.152637 12.6416C0.250369 12.7355 0.382921 12.7882 0.521135 12.7882H2.35851L3.03152 14.8257H1.91778C1.77956 14.8257 1.64701 14.8784 1.54928 14.9723C1.45155 15.0663 1.39664 15.1936 1.39664 15.3264V16.6256C1.3959 16.9087 1.4604 17.1884 1.58552 17.4447C1.71063 17.701 1.89326 17.9274 2.12027 18.1079L4.77657 20.2626C5.08296 20.9354 5.58217 21.5106 6.21593 21.921C6.84969 22.3315 7.59186 22.5603 8.35583 22.5807C9.1198 22.6011 9.87405 22.4122 10.5306 22.0363C11.1871 21.6603 11.7187 21.1126 12.0635 20.4572H23.3379C23.6736 21.0964 24.1874 21.6336 24.822 22.0089C25.4566 22.3842 26.1871 22.5829 26.9323 22.5829C27.6774 22.5829 28.4079 22.3842 29.0425 22.0089C29.6771 21.6336 30.1909 21.0964 30.5266 20.4572H33.4152C33.4988 20.4567 33.5811 20.4369 33.6552 20.3996C33.7293 20.3622 33.793 20.3084 33.841 20.2426L35.3091 18.2166C35.3497 18.1595 35.3778 18.095 35.3916 18.0271C35.4054 17.9592 35.4047 17.8893 35.3895 17.8217ZM1.04227 9.72067L4.43411 10.9797V11.7867H1.04227V9.72067ZM17.799 12.6251C17.8494 12.6252 17.8983 12.6416 17.9378 12.6717C17.9773 12.7019 18.005 12.7439 18.0164 12.7911L18.4988 14.8257H17.9032L17.4029 12.6251H17.799ZM2.44784 16.6313V15.8186H5.78906C5.36719 16.1776 5.02875 16.6179 4.7958 17.111C4.56286 17.604 4.44063 18.1387 4.43709 18.6802L2.79328 17.3467C2.68374 17.2586 2.59592 17.1482 2.53618 17.0235C2.47645 16.8988 2.44627 16.7629 2.44784 16.6256V16.6313ZM8.46919 21.5761C7.88085 21.576 7.30569 21.4086 6.81631 21.0948C6.32692 20.781 5.94523 20.3349 5.71941 19.8129C5.49358 19.2908 5.43375 18.7162 5.54745 18.1615C5.66115 17.6068 5.9433 17.0969 6.35828 16.6961C6.77326 16.2954 7.30248 16.0217 7.87915 15.9097C8.45583 15.7977 9.05411 15.8523 9.59851 16.0667C10.1429 16.2811 10.609 16.6456 10.938 17.1143C11.267 17.583 11.4442 18.1349 11.4471 18.7002C11.4463 19.4602 11.1328 20.1891 10.5749 20.7279C10.0171 21.2666 9.2601 21.5715 8.46919 21.5761ZM11.1493 15.8272H12.4298C12.9638 15.828 13.4921 15.9326 13.9829 16.1347C14.4736 16.3368 14.9168 16.6323 15.2856 17.0033L17.7007 19.4499H12.4268C12.4769 19.2029 12.5028 18.9519 12.5043 18.7002C12.5046 18.1563 12.3854 17.6185 12.1545 17.1219C11.9235 16.6253 11.5861 16.1812 11.1642 15.8186L11.1493 15.8272ZM19.148 19.4499L16.039 16.3022C15.572 15.8351 15.0115 15.4636 14.3913 15.2099C13.7711 14.9561 13.1039 14.8254 12.4298 14.8257H7.06957L12.8289 11.9298H16.1552L16.992 15.438C17.0199 15.5467 17.085 15.6433 17.1768 15.7123C17.2685 15.7812 17.3817 15.8187 17.4982 15.8186H24.2521C23.8329 16.179 23.497 16.6198 23.2661 17.1128C23.0353 17.6057 22.9147 18.1397 22.9121 18.6802C22.9135 18.9318 22.9394 19.1829 22.9895 19.4299L19.148 19.4499ZM26.9323 21.5761C26.3439 21.576 25.7688 21.4086 25.2794 21.0948C24.79 20.781 24.4083 20.3349 24.1825 19.8129C23.9567 19.2908 23.8968 18.7162 24.0105 18.1615C24.1242 17.6068 24.4064 17.0969 24.8213 16.6961C25.2363 16.2954 25.7655 16.0217 26.3422 15.9097C26.9189 15.7977 27.5172 15.8523 28.0616 16.0667C28.606 16.2811 29.0721 16.6456 29.4011 17.1143C29.7301 17.583 29.9072 18.1349 29.9102 18.7002C29.9094 19.4602 29.5959 20.1891 29.038 20.7279C28.4801 21.2666 27.7232 21.5715 26.9323 21.5761ZM33.1412 19.4499H30.8899C30.94 19.2029 30.9659 18.9519 30.9673 18.7002C30.967 17.9219 30.722 17.1619 30.2645 16.5197C31.5795 16.9734 32.8643 17.5037 34.112 18.1079L33.1412 19.4499Z" fill="#0080FF"/>
</g>
<defs>
<clipPath id="clip0_13_4159">
<rect width="36" height="26" fill="white"/>
</clipPath>
</defs>
</svg>
