<svg width="32" height="39" viewBox="0 0 32 39" fill="none" xmlns="http://www.w3.org/2000/svg"><path d="M25.218 5.369a3.886 3.886 0 0 0-.283-.55c-.494-.8-1.295-1.495-2.34-1.99l-.023-.011v3.668l1.36.644a7.5 7.5 0 0 1 1.568.991V6.745c0-.475-.098-.937-.282-1.376Z" fill="#419BD5"/><path fill-rule="evenodd" clip-rule="evenodd" d="M8.392 4.144a4.422 4.422 0 0 0-.433.575 3.653 3.653 0 0 0-.584 1.957v4.869a6.9 6.9 0 0 1 1.3 1.103.255.255 0 0 1 .143-.044h.976c.06-.122.124-.242.193-.36h-1.17a.261.261 0 0 1-.261-.26v-.873c0-.145.117-.262.262-.262h1.293c.144 0 .261.117.261.262v.56c.343-.452.761-.87 1.244-1.24h-.333a.26.26 0 0 1-.26-.26v-.873a.26.26 0 0 1 .26-.261h1.294a.26.26 0 0 1 .26.261v.375c.048-.024.094-.049.142-.071l.386-.184v-.12c0-.144.117-.261.26-.261h.543l1.938-.917V0l-5.827 2.76c-.77.365-1.407.839-1.887 1.384Zm1.98 6.027a.26.26 0 0 1-.261.26H8.817a.261.261 0 0 1-.261-.26v-.873c0-.144.117-.261.261-.261h1.294c.144 0 .261.117.261.261v.873Zm0-1.812a.26.26 0 0 1-.261.26H8.817a.261.261 0 0 1-.261-.26v-.873a.26.26 0 0 1 .261-.26h1.294a.26.26 0 0 1 .261.26v.873Zm0-1.823a.26.26 0 0 1-.261.26H8.817a.261.261 0 0 1-.261-.26v-.873a.26.26 0 0 1 .261-.26h1.294a.26.26 0 0 1 .261.26v.873Zm2.466 1.823a.26.26 0 0 1-.26.26h-1.295a.26.26 0 0 1-.26-.26v-.873a.26.26 0 0 1 .26-.26h1.294a.26.26 0 0 1 .26.26v.873Zm0-1.823a.26.26 0 0 1-.26.26h-1.295a.26.26 0 0 1-.26-.26v-.873a.26.26 0 0 1 .26-.26h1.294a.26.26 0 0 1 .26.26v.873Zm0-1.823a.26.26 0 0 1-.26.26h-1.295a.26.26 0 0 1-.26-.26V3.84a.26.26 0 0 1 .26-.26h1.294a.26.26 0 0 1 .26.26v.873Zm2.342 3.646a.26.26 0 0 1-.26.26h-1.295a.26.26 0 0 1-.26-.26v-.873a.26.26 0 0 1 .26-.26h1.294a.26.26 0 0 1 .261.26v.873Zm0-1.823a.26.26 0 0 1-.26.26h-1.295a.26.26 0 0 1-.26-.26v-.873a.26.26 0 0 1 .26-.26h1.294a.26.26 0 0 1 .261.26v.873Zm0-1.823a.26.26 0 0 1-.26.26h-1.295a.26.26 0 0 1-.26-.26V3.84a.26.26 0 0 1 .26-.26h1.294a.26.26 0 0 1 .261.26v.873Zm-1.815-2.697a.26.26 0 0 1 .26-.26h1.294a.26.26 0 0 1 .261.26v.875a.263.263 0 0 1-.26.26h-1.295a.246.246 0 0 1-.104-.023.26.26 0 0 1-.156-.238v-.874Zm-2.692 16.817-.543-.258-.157-.074-.543-.258-.157-.074-.544-.258-.54-.256v3.183h.666v-.102a.26.26 0 0 1 .26-.26h.802a.261.261 0 0 1 .213.11.26.26 0 0 1 .047.15v.102h.385v-.102a.262.262 0 0 1 .262-.26h.801a.26.26 0 0 1 .26.26v.102h.475v-.102a.26.26 0 0 1 .26-.26h.803a.26.26 0 0 1 .26.26v.102h.988a5.107 5.107 0 0 0-.88-.529l-3.118-1.476Zm-.495 1.07a.261.261 0 0 1-.26.26h-.802a.26.26 0 0 1-.26-.26v-.496a.26.26 0 0 1 .26-.26h.801a.258.258 0 0 1 .213.111c.03.041.048.093.048.15v.495Z" fill="#419BD5"/><path d="M4.135 25.084v.645c0 .02-.003.039-.007.057a.799.799 0 0 0-.018-1.464.26.26 0 0 1-.235.152h-.622a.797.797 0 0 0-.218.35h.84a.26.26 0 0 1 .26.26Z" fill="#FFCE0D"/><path d="M4.11 24.322a.787.787 0 0 0-.857.152h.622a.26.26 0 0 0 .236-.152Zm.018 1.464a.264.264 0 0 0 .007-.057v-.645a.26.26 0 0 0-.26-.26h-.84a.771.771 0 0 0-.04.235.802.802 0 0 0 1.133.727Zm8.492 2.547h.804c.083 0 .156.04.203.1h.077a.79.79 0 0 0-.02-.865v.242a.26.26 0 0 1-.26.26h-.803a.26.26 0 0 1-.26-.26v-.242a.791.791 0 0 0-.02.865h.076a.26.26 0 0 1 .204-.1Zm1.044.161a.83.83 0 0 0 .04-.06h-.076a.286.286 0 0 1 .036.06Zm-1.247-.061h-.076c.012.021.025.04.04.06a.345.345 0 0 1 .036-.06Z" fill="#FFCE0D"/><path d="M12.62 28.07h.804a.26.26 0 0 0 .26-.26v-.242a.8.8 0 0 0-1.324 0v.242c0 .145.117.26.26.26Zm.803.263h-.802a.26.26 0 0 0-.205.1h1.211a.259.259 0 0 0-.204-.1Zm-1.006.1a.345.345 0 0 0-.037.06.8.8 0 0 0 .642.327c.264 0 .496-.13.641-.326a.278.278 0 0 0-.036-.06h-1.21Zm8.073 4.538a.803.803 0 0 0-.802-.801.802.802 0 0 0 0 1.603c.442 0 .801-.36.801-.802Zm7.923-7.436h-.775v.373h.618a.794.794 0 0 0 .243-.389.28.28 0 0 1-.086.016Zm-.775 0h-.592a.287.287 0 0 1-.087-.016.802.802 0 0 0 .244.39h.434v-.374Z" fill="#FFCE0D"/><path d="M28.413 25.535c.03 0 .06-.007.086-.016a.777.777 0 0 0 .031-.21c0-.44-.36-.8-.801-.8-.03 0-.06.005-.091.008v1.018h.775Z" fill="#FFCE0D"/><path d="M27.638 25.535v-1.018a.798.798 0 0 0-.7.698v.188a.88.88 0 0 0 .02.116.283.283 0 0 0 .088.016h.592Zm-.71-.225c0 .032.006.062.009.093v-.188c-.003.032-.01.062-.01.094Zm.71.792c.022.002.044.006.067.006h.048a.792.792 0 0 0 .503-.2h-.618v.194Zm-.435-.193a.8.8 0 0 0 .435.193v-.194h-.435Z" fill="#FFCE0D"/><path fill-rule="evenodd" clip-rule="evenodd" d="M4.023 6.7c-.492-.602-1.17-1.124-2.002-1.519L0 4.224v3.74l1.335.632h.023a.26.26 0 0 1 .213.112l.161.076.166.078v-.006a.26.26 0 0 1 .26-.26H2.6a.26.26 0 0 1 .26.26v.218c0 .08-.037.152-.094.2l.623.295a.256.256 0 0 1 .077-.013h.44a.26.26 0 0 1 .26.26v.122l.76.36v-1.2c0-.752-.244-1.474-.692-2.118a4.6 4.6 0 0 0-.21-.28ZM1.618 8.107a.26.26 0 0 1-.26.261h-.44a.26.26 0 0 1-.261-.26V7.89a.26.26 0 0 1 .26-.261h.44c.144 0 .261.117.261.261v.217Zm0-.966a.26.26 0 0 1-.26.26h-.44a.26.26 0 0 1-.261-.26v-.217a.26.26 0 0 1 .26-.26h.44a.26.26 0 0 1 .261.26v.217Zm0-.966a.261.261 0 0 1-.26.262h-.44a.26.26 0 0 1-.261-.262V5.96a.26.26 0 0 1 .26-.26h.44a.26.26 0 0 1 .261.26v.217Zm.28.75a.26.26 0 0 1 .26-.261H2.6a.26.26 0 0 1 .26.26v.217a.26.26 0 0 1-.26.26h-.44a.26.26 0 0 1-.261-.26v-.217Zm.737 1.439a.22.22 0 0 1-.036.004h-.44l-.022-.002a.26.26 0 0 1-.24-.259V7.89c0-.144.118-.261.261-.261H2.6a.26.26 0 0 1 .203.099.26.26 0 0 1 .058.162v.217a.26.26 0 0 1-.225.257Zm1.53.71a.26.26 0 0 1-.26.26h-.44a.26.26 0 0 1-.26-.26v-.219a.26.26 0 0 1 .26-.26h.44a.26.26 0 0 1 .26.26v.218Zm0-.967a.261.261 0 0 1-.26.261h-.44a.26.26 0 0 1-.26-.26V7.89c0-.021.002-.041.006-.061a.261.261 0 0 1 .225-.197c.01-.001.019-.003.029-.003h.44c.143 0 .26.117.26.261v.217Zm27.693 2.757-.322.153-3.899 1.847-.7.331-.7.332-.062.03c-1.82.861-2.905 2.325-2.905 3.915v3.366h.952v-.201a.26.26 0 0 1 .26-.26h1.367a.26.26 0 0 1 .26.26v.201h.676v-.201a.26.26 0 0 1 .26-.26h1.367a.26.26 0 0 1 .26.26v.201h.549v-.201a.26.26 0 0 1 .26-.26h1.367a.26.26 0 0 1 .26.26v.201H32V10.797l-.142.067Zm-5.748 8.818a.26.26 0 0 1-.261.26h-1.367a.26.26 0 0 1-.26-.26v-.929a.26.26 0 0 1 .26-.26h1.367a.26.26 0 0 1 .26.26v.929Zm0-1.896a.26.26 0 0 1-.261.26h-1.367a.26.26 0 0 1-.26-.26v-.928a.26.26 0 0 1 .26-.26h1.367a.26.26 0 0 1 .26.26v.928Zm2.563 1.896a.26.26 0 0 1-.26.26h-1.367a.256.256 0 0 1-.11-.024.259.259 0 0 1-.15-.236v-.929a.261.261 0 0 1 .26-.26h1.366a.26.26 0 0 1 .26.26v.929Zm0-1.896a.26.26 0 0 1-.26.26h-1.367a.262.262 0 0 1-.26-.26v-.928a.26.26 0 0 1 .15-.236.256.256 0 0 1 .11-.025h1.366a.26.26 0 0 1 .26.26v.93Zm0-1.894a.26.26 0 0 1-.26.26h-1.367a.26.26 0 0 1-.26-.26v-.929a.26.26 0 0 1 .26-.261h1.366a.26.26 0 0 1 .26.261v.929Zm2.435 3.79a.26.26 0 0 1-.26.26H29.48a.26.26 0 0 1-.26-.26v-.929a.26.26 0 0 1 .26-.26h1.367a.26.26 0 0 1 .26.26v.929Zm0-1.896a.26.26 0 0 1-.26.26H29.48a.26.26 0 0 1-.26-.26v-.928a.26.26 0 0 1 .26-.26h1.367a.26.26 0 0 1 .26.26v.928Zm0-1.894a.26.26 0 0 1-.26.26H29.48a.261.261 0 0 1-.26-.26v-.929a.26.26 0 0 1 .26-.261h1.367a.26.26 0 0 1 .26.261v.929Zm0-1.896a.26.26 0 0 1-.26.26H29.48a.261.261 0 0 1-.26-.26v-.928c0-.144.117-.261.26-.261h1.367a.26.26 0 0 1 .26.26v.929Z" fill="#0986C7"/><path d="m14.498 10.432-.92.435c-1.819.862-2.904 2.325-2.904 3.916v2.499l3.719 1.762a6.117 6.117 0 0 1 1.713 1.196V9.67l-.926.438-.682.324Z" fill="#0986C7"/><path d="M21.87 17.472c0-1.75.976-3.412 2.61-4.546a7.63 7.63 0 0 1 1.095-.635l.138-.066.488-.23.02-.01c-.005-.05-.013-.101-.02-.151a3.8 3.8 0 0 0-.7-1.704c-.5-.693-1.237-1.292-2.168-1.733l-.76-.361-.701-.332-.7-.332-3.665-1.736v15.202h4.363v-3.366Z" fill="#83C2E1"/><path fill-rule="evenodd" clip-rule="evenodd" d="M.657 20.576a.26.26 0 0 1 .26-.261h.998a.26.26 0 0 1 .26.26v.263h.441v-.262c0-.144.117-.261.262-.261h.996c.144 0 .261.117.261.26v.263h.544v-.262a.26.26 0 0 1 .247-.26l.014-.001h.996c.013 0 .026.002.039.004a.26.26 0 0 1 .222.257v.262h.592v-5.397l.586.278 1.355.641v-.171c0-1.063-.488-2.07-1.355-2.879a5.616 5.616 0 0 0-1.05-.77 6.222 6.222 0 0 0-.35-.19c-.05-.025-.098-.052-.15-.076l-.199-.095-.7-.332-3.824-1.811-.325-.154L0 9.513v11.325h.657v-.262Zm4.022-6.025a.26.26 0 0 1 .247-.259l.014-.002h.997a.26.26 0 0 1 .26.26v.647a.26.26 0 0 1-.222.257.233.233 0 0 1-.038.004H4.94l-.014-.002a.26.26 0 0 1-.247-.259v-.646Zm0 1.525a.26.26 0 0 1 .247-.259l.014-.002h.997a.26.26 0 0 1 .26.26v.646a.26.26 0 0 1-.222.258.233.233 0 0 1-.038.004H4.94l-.014-.002a.26.26 0 0 1-.247-.26v-.645Zm0 1.516a.26.26 0 0 1 .247-.26h1.011a.26.26 0 0 1 .26.26v.645a.26.26 0 0 1-.222.258c-.012 0-.025.003-.038.003H4.94l-.014-.001a.26.26 0 0 1-.247-.26v-.645Zm0 1.516c0-.139.11-.252.247-.26h1.011a.26.26 0 0 1 .26.26v.645a.259.259 0 0 1-.222.257.24.24 0 0 1-.038.004H4.94l-.014-.001a.26.26 0 0 1-.247-.26v-.645Zm-2.063-6.08c0-.146.117-.262.262-.262h.996a.26.26 0 0 1 .261.261v.645a.26.26 0 0 1-.26.26h-.997a.261.261 0 0 1-.262-.26v-.645Zm0 1.523a.26.26 0 0 1 .262-.26h.996a.26.26 0 0 1 .261.26v.646a.26.26 0 0 1-.26.26h-.997a.261.261 0 0 1-.262-.26v-.646Zm0 1.525a.26.26 0 0 1 .262-.26h.996a.26.26 0 0 1 .261.26v.645a.261.261 0 0 1-.26.262h-.997a.261.261 0 0 1-.262-.262v-.645Zm0 1.516a.26.26 0 0 1 .262-.26h.996a.26.26 0 0 1 .261.26v.645a.26.26 0 0 1-.26.26h-.997a.26.26 0 0 1-.262-.26v-.645Zm0 1.516c0-.143.117-.26.262-.26h.996c.144 0 .261.117.261.26v.645a.26.26 0 0 1-.26.26h-.997a.261.261 0 0 1-.262-.26v-.645Zm-.441.645a.26.26 0 0 1-.26.26H.917a.26.26 0 0 1-.261-.26v-.645a.26.26 0 0 1 .26-.26h.997a.26.26 0 0 1 .261.26v.645Zm0-1.516a.26.26 0 0 1-.26.26H.917a.26.26 0 0 1-.261-.26v-.645a.26.26 0 0 1 .26-.26h.997a.26.26 0 0 1 .261.26v.645Zm0-1.516a.261.261 0 0 1-.26.262H.917a.26.26 0 0 1-.261-.262v-.645a.26.26 0 0 1 .26-.26h.997a.26.26 0 0 1 .261.26v.645Zm0-1.524a.26.26 0 0 1-.26.26H.917a.26.26 0 0 1-.261-.26v-.646a.26.26 0 0 1 .26-.26h.997a.26.26 0 0 1 .261.26v.646Zm0-1.525a.26.26 0 0 1-.26.26H.917a.26.26 0 0 1-.261-.26v-.645a.26.26 0 0 1 .26-.261h.997a.26.26 0 0 1 .261.261v.645Zm-.26-2.431c.143 0 .26.117.26.261v.645a.26.26 0 0 1-.26.26H.917a.26.26 0 0 1-.261-.26v-.645a.26.26 0 0 1 .26-.261h.997Z" fill="#83C2E1"/><path d="M26.11 32.203a.79.79 0 0 0-.218-.033.802.802 0 0 0-.801.801c0 .017.004.034.005.051a.799.799 0 0 0 .796.751.79.79 0 0 0 .218-.035.799.799 0 0 0 .583-.767.801.801 0 0 0-.584-.767Zm-21.272-.95a.778.778 0 0 0-.044-.767.802.802 0 0 0-.677-.376.767.767 0 0 0-.219.035.796.796 0 0 0-.546.54.772.772 0 0 0-.037.227c0 .255.123.481.312.628a.79.79 0 0 0 .436.167c.017.001.035.005.054.005a.8.8 0 0 0 .72-.459Zm-.703-2.543a2.22 2.22 0 0 1 1.004.252l.836-.835.187-.187.084-.084a1.845 1.845 0 0 0 .542-1.31V22.24H.001a15.923 15.923 0 0 0 .859 5.098l.921-.998.132-.143a2.184 2.184 0 0 1 .262-2.622 2.203 2.203 0 0 1 1.62-.717 2.183 2.183 0 0 1 1.329.45 2.201 2.201 0 0 1 .85 1.447c.004.025.009.049.012.074.008.076.013.153.013.231a2.238 2.238 0 0 1-.415 1.28 2.192 2.192 0 0 1-1.45.894 2.252 2.252 0 0 1-.338.028 2.2 2.2 0 0 1-.814-.157l-.295.319-.525.568-.726.788a11.19 11.19 0 0 0 .247.517c.13.257.264.51.406.758a2.233 2.233 0 0 1 .984-1.081 2.18 2.18 0 0 1 1.044-.264h.018Zm8.515 5.557a.8.8 0 1 0 .648.333.8.8 0 0 0-.648-.333Zm18.31-6.437a15.918 15.918 0 0 0 1.038-5.59h-8.727v6.387a1.925 1.925 0 0 0 .558 1.35l.393.392.652.651a2.185 2.185 0 0 1 1.929-.051 2.181 2.181 0 0 1 1.264 1.681 16.6 16.6 0 0 0 1.066-1.365l-.46-.507-.855-.944-.105-.114c-.01-.01-.016-.022-.026-.032a2.612 2.612 0 0 1-.308-.434c-.023-.04-.047-.08-.067-.12a2.6 2.6 0 0 1-.284-1.19v-.549l-.091-.033a2.222 2.222 0 0 1-.828-.566 2.195 2.195 0 0 1 .127-3.101 2.222 2.222 0 0 1 .7-.438 2.17 2.17 0 0 1 .701-.145c.031-.002.06-.005.091-.005a2.22 2.22 0 0 1 1.83.977 2.187 2.187 0 0 1 .288 1.825 2.202 2.202 0 0 1-1.417 1.486v.549c0 .17.036.337.102.49a1.225 1.225 0 0 0 .22.344l.323.356.502.554.132.146.201.222a16.407 16.407 0 0 0 1.05-2.226Z" fill="#83C2E1"/><path d="M24.222 34.403a2.19 2.19 0 0 1-.319-2.37l-1.064-1.066a3.302 3.302 0 0 1-.97-2.34v-6.388h-4.362v7.199a4.348 4.348 0 0 1-1.213 3.022l-1.635 1.71c.123.274.193.578.193.897a2.205 2.205 0 0 1-2.202 2.203 2.205 2.205 0 0 1-2.202-2.203 2.192 2.192 0 0 1 .58-1.484 2.19 2.19 0 0 1 1.332-.696c.096-.013.192-.022.29-.022.37 0 .72.094 1.026.256l.032.016 1.574-1.645c.438-.46.712-1.037.794-1.658.018-.13.03-.262.03-.396V22.24H8.19v4.308a3.23 3.23 0 0 1-.7 2.013c-.079.1-.161.195-.253.286l-.288.288-.16.16-.54.54-.142.142a2.171 2.171 0 0 1 .204 1.091 2.154 2.154 0 0 1-.541 1.293 2.193 2.193 0 0 1-1.43.742 16.116 16.116 0 0 0 2.449 2.13v-.39c0-.678.207-1.323.586-1.867.11-.159.233-.31.373-.45l.115-.113.542-.543.325-.325.126-.126.435-.435.14-.14.164-.164.536-.536.047-.048.261-.26.485-.485.208-.208-.005-.008a2.195 2.195 0 0 1-.267-.7c-.006-.033-.01-.067-.015-.1a2.085 2.085 0 0 1-.022-.263c0-.018-.003-.035-.003-.053 0-.346.083-.672.226-.964.044-.09.093-.178.148-.262.18-.266.417-.49.693-.657a2.158 2.158 0 0 1 1.135-.319 2.191 2.191 0 0 1 1.155.33c.275.172.511.4.688.671a2.19 2.19 0 0 1 .325 1.584l-.007.032a2.16 2.16 0 0 1-.265.7 2.196 2.196 0 0 1-.653.7 2.18 2.18 0 0 1-2.068.225l-.31.31-.31.31-.306.305-.708.708-.432.433-.183.183-.518.518-.134.135-.32.319-.223.223-.014.014a1.862 1.862 0 0 0-.55 1.325v1.276a15.901 15.901 0 0 0 7.81 2.04c1.022 0 2.02-.098 2.99-.283v-2.807h.026a2.204 2.204 0 0 1-1.529-2.095c0-1.214.988-2.202 2.202-2.202 1.215 0 2.203.988 2.203 2.202 0 .98-.643 1.81-1.53 2.095h.027v2.477c1.816-.519 3.5-1.35 4.992-2.433a2.206 2.206 0 0 1-1.157-.707Z" fill="#83C2E1"/></svg>