<svg width="33" height="39" viewBox="0 0 33 39" fill="none" xmlns="http://www.w3.org/2000/svg"><path d="M25.45 5.418a3.9 3.9 0 0 0-.285-.555c-.499-.808-1.307-1.508-2.361-2.007l-.024-.012v3.702l1.373.65a7.57 7.57 0 0 1 1.582 1V6.807c0-.479-.099-.946-.285-1.389Z" fill="#419BD5"/><path fill-rule="evenodd" clip-rule="evenodd" d="M8.469 4.182c-.164.186-.31.379-.436.58a3.686 3.686 0 0 0-.59 1.975v4.914c.497.328.936.702 1.311 1.113a.258.258 0 0 1 .145-.044h.985a5.29 5.29 0 0 1 .195-.363h-1.18a.263.263 0 0 1-.264-.263v-.881c0-.146.118-.264.264-.264h1.305c.146 0 .264.118.264.264v.566a6.61 6.61 0 0 1 1.255-1.251h-.336a.263.263 0 0 1-.263-.263v-.881c0-.146.118-.264.263-.264h1.306c.145 0 .263.118.263.264v.378c.048-.024.094-.049.142-.072l.39-.185v-.121c0-.146.118-.264.263-.264h.548l1.955-.925V0l-5.88 2.786c-.777.368-1.42.846-1.905 1.396Zm1.999 6.083a.263.263 0 0 1-.264.263H8.899a.263.263 0 0 1-.264-.263v-.881c0-.146.118-.264.264-.264h1.305c.146 0 .264.118.264.264v.881Zm0-1.829a.263.263 0 0 1-.264.263H8.899a.263.263 0 0 1-.264-.263v-.881c0-.146.118-.263.264-.263h1.305c.146 0 .264.117.264.263v.881Zm0-1.84a.263.263 0 0 1-.264.263H8.899a.264.264 0 0 1-.264-.263v-.881c0-.145.118-.263.264-.263h1.305c.146 0 .264.118.264.263v.88Zm2.488 1.84a.263.263 0 0 1-.263.263h-1.306a.263.263 0 0 1-.263-.263v-.881c0-.146.118-.263.263-.263h1.306c.145 0 .263.117.263.263v.881Zm0-1.84a.263.263 0 0 1-.263.263h-1.306a.263.263 0 0 1-.263-.263v-.881c0-.145.118-.263.263-.263h1.306c.145 0 .263.118.263.263v.88Zm0-1.84a.263.263 0 0 1-.263.263h-1.306a.263.263 0 0 1-.263-.263v-.881c0-.145.118-.263.263-.263h1.306c.145 0 .263.118.263.263v.881Zm2.364 3.68a.263.263 0 0 1-.263.263h-1.306a.263.263 0 0 1-.263-.263v-.881c0-.146.118-.263.263-.263h1.306c.146 0 .263.117.263.263v.881Zm0-1.84a.263.263 0 0 1-.263.263h-1.306a.263.263 0 0 1-.263-.263v-.881c0-.145.118-.263.263-.263h1.306c.146 0 .263.118.263.263v.88Zm0-1.84a.262.262 0 0 1-.263.263h-1.306a.263.263 0 0 1-.263-.263v-.881c0-.145.118-.263.263-.263h1.306c.146 0 .263.118.263.263v.881Zm-1.832-2.721c0-.145.118-.263.263-.263h1.306c.146 0 .263.118.263.263v.882a.265.265 0 0 1-.263.263h-1.306a.248.248 0 0 1-.105-.023.262.262 0 0 1-.158-.24v-.882Zm-2.716 16.971-.548-.26-.158-.075-.55-.26-.157-.075-.55-.26-.544-.258v3.212h.672v-.103c0-.145.118-.263.263-.263h.809a.266.266 0 0 1 .263.263v.103h.388v-.103a.265.265 0 0 1 .264-.263h.809c.145 0 .263.118.263.263v.103h.478v-.103c0-.145.118-.263.263-.263h.81c.145 0 .263.118.263.263v.103h.997a5.16 5.16 0 0 0-.888-.534l-3.147-1.49Zm-.5 1.08a.264.264 0 0 1-.263.263h-.81a.263.263 0 0 1-.262-.263v-.5c0-.145.118-.263.263-.263h.809a.26.26 0 0 1 .215.112c.03.042.048.094.048.151v.5Z" fill="#419BD5"/><path d="M4.173 25.315v.65c0 .021-.003.04-.007.058a.806.806 0 0 0-.018-1.477.262.262 0 0 1-.238.153h-.627a.803.803 0 0 0-.22.353h.847c.145 0 .263.117.263.263Z" fill="#FFCE0D"/><path d="M4.148 24.546a.794.794 0 0 0-.865.153h.627a.262.262 0 0 0 .238-.153Zm.018 1.477a.267.267 0 0 0 .007-.057v-.651a.263.263 0 0 0-.263-.263h-.847a.779.779 0 0 0-.04.238c0 .445.362.808.808.808a.8.8 0 0 0 .335-.075Zm8.571 2.571h.81a.26.26 0 0 1 .206.101h.077a.798.798 0 0 0-.02-.873v.244a.263.263 0 0 1-.263.263h-.81a.263.263 0 0 1-.263-.263v-.244a.798.798 0 0 0-.02.873h.077a.262.262 0 0 1 .206-.101Zm1.053.162a.812.812 0 0 0 .04-.061h-.077c.014.019.027.04.036.061Zm-1.26-.061h-.076l.04.061a.354.354 0 0 1 .037-.061Z" fill="#FFCE0D"/><path d="M12.737 28.329h.81a.263.263 0 0 0 .263-.263v-.244a.808.808 0 0 0-1.336 0v.244c0 .146.118.263.263.263Zm.81.265h-.81a.262.262 0 0 0-.206.1h1.222a.261.261 0 0 0-.206-.1Zm-1.017.101a.345.345 0 0 0-.036.061.808.808 0 0 0 .648.329c.266 0 .5-.131.647-.329a.29.29 0 0 0-.036-.061H12.53Zm8.148 4.58a.81.81 0 0 0-.809-.809.81.81 0 0 0 0 1.618.81.81 0 0 0 .809-.809Zm7.996-7.505h-.782v.377h.624a.802.802 0 0 0 .245-.393.281.281 0 0 1-.087.016Z" fill="#FFCE0D"/><path d="M27.892 25.77h-.597a.289.289 0 0 1-.088-.016.81.81 0 0 0 .246.393h.44v-.377Z" fill="#FFCE0D"/><path d="M28.674 25.77a.28.28 0 0 0 .087-.016.782.782 0 0 0 .032-.212.81.81 0 0 0-.809-.808c-.031 0-.061.006-.092.009v1.027h.782Zm-.782 0v-1.027a.805.805 0 0 0-.707.704v.19c.005.04.012.079.022.117a.287.287 0 0 0 .088.016h.597Zm-.716-.228c0 .033.006.064.009.095v-.19c-.003.032-.009.063-.009.095Zm.716.8c.023.002.045.006.068.006h.048a.8.8 0 0 0 .508-.201h-.624v.195Zm-.439-.195c.12.106.272.175.439.195v-.195h-.439Z" fill="#FFCE0D"/><path fill-rule="evenodd" clip-rule="evenodd" d="M4.06 6.761c-.496-.607-1.18-1.134-2.02-1.532L0 4.263v3.774l1.347.638h.023c.09 0 .168.045.216.113l.162.077.167.079v-.006c0-.145.118-.263.263-.263h.445c.145 0 .263.118.263.263v.22a.26.26 0 0 1-.096.201l.629.298a.258.258 0 0 1 .078-.013h.444c.145 0 .263.118.263.263v.122l.767.363v-1.21c0-.759-.247-1.488-.699-2.138a4.638 4.638 0 0 0-.212-.283ZM1.633 8.183a.263.263 0 0 1-.263.263H.926a.263.263 0 0 1-.263-.263v-.219c0-.146.117-.264.263-.264h.444c.145 0 .263.118.263.264v.219Zm0-.975a.263.263 0 0 1-.263.263H.926a.262.262 0 0 1-.263-.263V6.99c0-.146.117-.263.263-.263h.444c.145 0 .263.117.263.263v.22Zm0-.975a.263.263 0 0 1-.263.264H.926a.263.263 0 0 1-.263-.264v-.219c0-.145.117-.263.263-.263h.444c.145 0 .263.118.263.263v.22Zm.282.756c0-.146.118-.263.263-.263h.445c.145 0 .263.117.263.263v.22a.263.263 0 0 1-.263.262h-.445a.263.263 0 0 1-.263-.263v-.219Zm.744 1.453a.22.22 0 0 1-.036.004h-.445l-.022-.002a.262.262 0 0 1-.241-.261v-.219c0-.146.118-.264.263-.264h.445c.083 0 .156.04.204.1a.26.26 0 0 1 .059.164v.219a.262.262 0 0 1-.227.259Zm1.545.716a.264.264 0 0 1-.263.263h-.444a.263.263 0 0 1-.263-.263v-.22c0-.145.117-.263.263-.263h.444c.145 0 .263.118.263.263v.22Zm0-.975a.264.264 0 0 1-.263.263h-.444a.263.263 0 0 1-.263-.263v-.219a.264.264 0 0 1 .234-.261l.03-.003h.443c.145 0 .263.118.263.264v.219Zm27.948 2.781-.325.154-3.935 1.864-.707.335-.707.335-.062.03c-1.836.869-2.931 2.346-2.931 3.951v3.397h.96v-.203c0-.145.118-.263.263-.263h1.379c.145 0 .263.118.263.263v.203h.682v-.203a.262.262 0 0 1 .263-.263h1.379c.145 0 .263.118.263.263v.203h.553v-.203c0-.145.118-.263.263-.263h1.379c.145 0 .263.118.263.263v.203h.9V10.896l-.143.068Zm-5.802 8.899a.263.263 0 0 1-.263.263h-1.38a.263.263 0 0 1-.262-.263v-.937c0-.145.118-.263.263-.263h1.379c.145 0 .263.118.263.263v.937Zm0-1.913a.263.263 0 0 1-.263.263h-1.38a.263.263 0 0 1-.262-.263v-.937c0-.145.118-.263.263-.263h1.379c.145 0 .263.118.263.263v.937Zm2.587 1.913a.263.263 0 0 1-.263.263h-1.379a.257.257 0 0 1-.11-.025.261.261 0 0 1-.153-.238v-.937a.264.264 0 0 1 .263-.263h1.379c.145 0 .263.118.263.263v.937Zm0-1.913a.263.263 0 0 1-.263.263h-1.379a.264.264 0 0 1-.263-.263v-.937c0-.106.063-.197.153-.238a.257.257 0 0 1 .11-.025h1.379c.145 0 .263.118.263.263v.937Zm0-1.912a.263.263 0 0 1-.263.263h-1.379a.262.262 0 0 1-.263-.263v-.937a.263.263 0 0 1 .263-.264h1.379c.145 0 .263.118.263.264v.937Zm2.458 3.825a.263.263 0 0 1-.263.263h-1.38a.263.263 0 0 1-.262-.263v-.937c0-.145.118-.263.263-.263h1.379c.145 0 .263.118.263.263v.937Zm0-1.913a.263.263 0 0 1-.263.263h-1.38a.263.263 0 0 1-.262-.263v-.937c0-.145.118-.263.263-.263h1.379c.145 0 .263.118.263.263v.937Zm0-1.912a.263.263 0 0 1-.263.263h-1.38a.263.263 0 0 1-.262-.263v-.937c0-.146.118-.264.263-.264h1.379c.145 0 .263.118.263.264v.937Zm0-1.913a.263.263 0 0 1-.263.263h-1.38a.263.263 0 0 1-.262-.263v-.937c0-.145.118-.263.263-.263h1.379c.145 0 .263.118.263.263v.937Z" fill="#0986C7"/><path d="m14.631 10.528-.928.439c-1.835.87-2.931 2.347-2.931 3.952v2.522l3.753 1.778a6.173 6.173 0 0 1 1.73 1.207V9.759l-.935.442-.689.327Z" fill="#0986C7"/><path d="M22.071 17.633c0-1.767.985-3.443 2.634-4.588.342-.238.71-.454 1.105-.641l.14-.066.492-.233.02-.01c-.005-.051-.013-.102-.02-.152a3.835 3.835 0 0 0-.707-1.72c-.504-.699-1.248-1.304-2.187-1.749l-.768-.364-.707-.335-.707-.335-3.698-1.752V21.03h4.403v-3.397Z" fill="#83C2E1"/><path fill-rule="evenodd" clip-rule="evenodd" d="M.663 20.765c0-.145.117-.263.263-.263h1.006c.145 0 .263.118.263.263v.265h.445v-.265c0-.145.118-.263.264-.263H3.91c.145 0 .263.118.263.263v.265h.549v-.265c0-.14.11-.254.249-.262l.014-.001h1.006c.013 0 .026.002.039.004.127.02.224.127.224.26v.264h.597v-5.447l.592.281 1.367.647v-.173c0-1.073-.492-2.089-1.367-2.905a5.672 5.672 0 0 0-1.059-.778 6.251 6.251 0 0 0-.354-.192c-.051-.025-.099-.052-.15-.076l-.202-.096-.707-.335-3.859-1.828-.328-.155L0 9.601V21.03h.663v-.265Zm4.059-6.08c0-.14.11-.254.249-.261l.014-.002h1.006c.013 0 .026.002.039.004a.262.262 0 0 1 .224.26v.651a.262.262 0 0 1-.263.263H4.985l-.014-.002a.262.262 0 0 1-.25-.26v-.653Zm0 1.54c0-.14.11-.255.249-.262l.014-.002h1.006c.013 0 .026.002.039.004.127.02.224.127.224.26v.65a.262.262 0 0 1-.224.26c-.013.002-.026.004-.039.004H4.985l-.014-.002a.262.262 0 0 1-.25-.262v-.65Zm0 1.53c0-.14.11-.255.249-.263l.014-.001h1.006c.013 0 .026.002.039.004a.262.262 0 0 1 .224.26v.65a.263.263 0 0 1-.224.26l-.039.003h-1.02a.263.263 0 0 1-.25-.263v-.65Zm0 1.53c0-.14.11-.255.249-.263h1.02l.039.003a.262.262 0 0 1 .224.26v.65a.261.261 0 0 1-.224.259.244.244 0 0 1-.039.004h-1.02a.263.263 0 0 1-.25-.263v-.65ZM2.64 13.146c0-.146.118-.264.264-.264H3.91c.145 0 .263.118.263.264v.651a.263.263 0 0 1-.263.263H2.904a.263.263 0 0 1-.264-.263v-.651Zm0 1.538c0-.145.118-.263.264-.263H3.91c.145 0 .263.118.263.263v.652a.263.263 0 0 1-.263.263H2.904a.263.263 0 0 1-.264-.263v-.652Zm0 1.54c0-.146.118-.264.264-.264H3.91c.145 0 .263.118.263.263v.651a.264.264 0 0 1-.263.264H2.904a.264.264 0 0 1-.264-.264v-.65Zm0 1.53c0-.146.118-.264.264-.264H3.91c.145 0 .263.118.263.263v.651a.263.263 0 0 1-.263.263H2.904a.263.263 0 0 1-.264-.263v-.65Zm0 1.53c0-.146.118-.264.264-.264H3.91c.145 0 .263.118.263.263v.651a.263.263 0 0 1-.263.263H2.904a.264.264 0 0 1-.264-.263v-.65Zm-.445.65a.263.263 0 0 1-.263.263H.926a.263.263 0 0 1-.263-.263v-.65c0-.146.117-.264.263-.264h1.006c.145 0 .263.118.263.263v.651Zm0-1.53a.263.263 0 0 1-.263.263H.926a.262.262 0 0 1-.263-.263v-.65c0-.146.117-.264.263-.264h1.006c.145 0 .263.118.263.263v.651Zm0-1.53a.263.263 0 0 1-.263.264H.926a.263.263 0 0 1-.263-.264v-.65c0-.146.117-.264.263-.264h1.006c.145 0 .263.118.263.263v.651Zm0-1.538a.263.263 0 0 1-.263.263H.926a.263.263 0 0 1-.263-.263v-.652c0-.145.117-.263.263-.263h1.006c.145 0 .263.118.263.263v.652Zm0-1.539a.263.263 0 0 1-.263.263H.926a.263.263 0 0 1-.263-.263v-.651c0-.146.117-.264.263-.264h1.006c.145 0 .263.118.263.264v.651Zm-.263-2.454c.145 0 .263.118.263.264v.651a.263.263 0 0 1-.263.263H.926a.263.263 0 0 1-.263-.263v-.65c0-.147.117-.265.263-.265h1.006Z" fill="#83C2E1"/><path d="M26.35 32.5a.794.794 0 0 0-.22-.034.81.81 0 0 0-.808.81c0 .016.004.033.005.05a.806.806 0 0 0 .803.758c.077 0 .15-.015.22-.035a.806.806 0 0 0 .589-.774.808.808 0 0 0-.589-.775Zm-21.468-.959a.785.785 0 0 0-.044-.774.809.809 0 0 0-.683-.38.774.774 0 0 0-.22.035.804.804 0 0 0-.552.546.779.779 0 0 0-.037.228c0 .258.124.486.314.634a.797.797 0 0 0 .44.169c.018.001.036.005.055.005.321 0 .597-.19.727-.463Zm-.709-2.567c.194.002.382.03.561.079.16.043.31.101.453.176l.843-.843.189-.189.085-.085a1.862 1.862 0 0 0 .547-1.321v-4.347H.001a16.07 16.07 0 0 0 .867 5.145l.93-1.008.133-.144a2.204 2.204 0 0 1 .264-2.646 2.223 2.223 0 0 1 1.636-.724 2.204 2.204 0 0 1 1.341.455 2.222 2.222 0 0 1 .858 1.46l.011.075c.008.076.013.154.013.233a2.258 2.258 0 0 1-.418 1.291 2.208 2.208 0 0 1-1.463.902 2.267 2.267 0 0 1-.342.029 2.21 2.21 0 0 1-.82-.159l-.299.322-.53.574-.733.795a11.602 11.602 0 0 0 .25.522c.13.259.266.514.41.765a2.253 2.253 0 0 1 .993-1.091 2.2 2.2 0 0 1 1.053-.267l.018.001Zm8.593 5.608a.79.79 0 0 0-.292.057.807.807 0 0 0 .292 1.56.805.805 0 0 0 .654-1.281.806.806 0 0 0-.654-.336Zm18.479-6.496a16.064 16.064 0 0 0 1.048-5.642h-8.808v6.446a1.943 1.943 0 0 0 .564 1.363l.396.396.658.657a2.205 2.205 0 0 1 1.947-.052 2.2 2.2 0 0 1 .795.608c.252.306.421.68.48 1.089a16.652 16.652 0 0 0 1.076-1.378l-.464-.512-.863-.952-.105-.116c-.01-.01-.017-.022-.027-.032a2.64 2.64 0 0 1-.311-.438c-.023-.04-.047-.08-.067-.121a2.632 2.632 0 0 1-.287-1.201v-.554c-.031-.01-.061-.022-.092-.033a2.24 2.24 0 0 1-1.337-1.467 2.156 2.156 0 0 1-.086-.605 2.208 2.208 0 0 1 .716-1.63 2.244 2.244 0 0 1 .707-.441c.22-.086.459-.136.707-.146.031-.002.061-.005.092-.005a2.239 2.239 0 0 1 1.846.986 2.207 2.207 0 0 1 .291 1.84 2.223 2.223 0 0 1-1.43 1.5v.556c0 .172.036.34.103.494a1.236 1.236 0 0 0 .222.348l.326.359.506.559.134.148.203.224a17.913 17.913 0 0 0 .49-.931 15.439 15.439 0 0 0 .57-1.316Z" fill="#83C2E1"/><path d="M24.445 34.72a2.21 2.21 0 0 1-.322-2.393l-1.074-1.075a3.33 3.33 0 0 1-.935-1.85 3.35 3.35 0 0 1-.043-.512v-6.446h-4.403v7.265c0 .134-.007.268-.02.4a4.389 4.389 0 0 1-1.204 2.65l-1.65 1.725c.124.277.195.584.195.906a2.225 2.225 0 0 1-2.223 2.223 2.225 2.225 0 0 1-2.222-2.223 2.22 2.22 0 0 1 1.452-2.081c.152-.057.312-.098.478-.12a2.208 2.208 0 0 1 1.328.236l.032.017 1.588-1.66a2.982 2.982 0 0 0 .802-1.673c.018-.132.03-.265.03-.4v-7.265H8.265v4.347c0 .693-.217 1.352-.612 1.904a3.144 3.144 0 0 1-.35.416l-.29.291-.162.162-.545.545-.143.143c.136.287.214.606.214.944 0 .053-.004.105-.008.157a2.174 2.174 0 0 1-.546 1.305 2.214 2.214 0 0 1-1.443.749 16.264 16.264 0 0 0 2.471 2.15v-.395c0-.684.209-1.335.592-1.884.11-.16.235-.312.376-.453l.116-.115.547-.548.328-.328.127-.127.439-.439.141-.141.166-.166.541-.54.048-.049.263-.263.489-.489.21-.21-.005-.008a2.214 2.214 0 0 1-.27-.707l-.014-.101a2.104 2.104 0 0 1-.023-.265l-.002-.053c0-.349.083-.678.227-.973.045-.09.094-.18.15-.264a2.234 2.234 0 0 1 1.212-.892 2.212 2.212 0 0 1 2.493.917 2.208 2.208 0 0 1 .327 1.598l-.006.033a2.19 2.19 0 0 1-.268.707 2.215 2.215 0 0 1-.659.707 2.199 2.199 0 0 1-1.254.39 2.228 2.228 0 0 1-.833-.164l-.313.313-.313.313-.308.307-.715.715-.436.437-.185.184-.522.523-.136.136-.323.322-.225.225-.014.015a1.88 1.88 0 0 0-.554 1.337v1.288a16.05 16.05 0 0 0 7.882 2.06c1.03 0 2.038-.1 3.016-.287V35.39h.027a2.224 2.224 0 0 1-1.543-2.115c0-1.225.997-2.222 2.222-2.222 1.226 0 2.223.997 2.223 2.222 0 .99-.649 1.828-1.544 2.115h.028v2.5a16.109 16.109 0 0 0 5.037-2.456 2.226 2.226 0 0 1-1.168-.714Z" fill="#83C2E1"/><circle cx="16.5" cy="22.5" r="9.25" fill="#072637" stroke="#FFCE0D" stroke-width=".5"/><path d="M14.438 18.88c0-.887.692-1.607 1.546-1.607h1.032c.854 0 1.547.72 1.547 1.607v2.144h1.03c.652 0 1.032.525 1.032 1.072v4.287c0 .546-.38 1.072-1.031 1.072h-6.188c-.65 0-1.031-.526-1.031-1.072v-4.287c0-.547.38-1.072 1.031-1.072h1.031V18.88Zm.773 2.144h2.578V18.88c0-.444-.346-.803-.773-.803h-1.032c-.427 0-.773.36-.773.803v2.144Z" fill="#FFCE0D"/></svg>